ISO-10303-21;
HEADER;
/* Generated by software containing ST-Developer
 * from STEP Tools, Inc. (www.steptools.com) 
 */

FILE_DESCRIPTION(
/* description */ (''),
/* implementation_level */ '2;1');

FILE_NAME(
/* name */ 'SUPERCAP_5F v4.step',
/* time_stamp */ '2026-08-20T13:19:36+08:00',
/* author */ (''),
/* organization */ (''),
/* preprocessor_version */ 'ST-DEVELOPER v20.1',
/* originating_system */ 'Autodesk Translation Framework v15.8.0.0',
/* authorisation */ '');

FILE_SCHEMA (('AUTOMOTIVE_DESIGN { 1 0 10303 214 3 1 1 }'));
ENDSEC;

DATA;
#10=MECHANICAL_DESIGN_GEOMETRIC_PRESENTATION_REPRESENTATION('',(#15,#16,
#17,#18,#19),#906);
#11=SHAPE_REPRESENTATION_RELATIONSHIP('SRR','None',#913,#12);
#12=ADVANCED_BREP_SHAPE_REPRESENTATION('',(#20,#21,#22,#23,#24),#905);
#13=TOROIDAL_SURFACE('',#553,1.19999886006122,0.4);
#14=TOROIDAL_SURFACE('',#568,1.19999886006122,0.4);
#15=STYLED_ITEM('',(#923),#20);
#16=STYLED_ITEM('',(#924),#21);
#17=STYLED_ITEM('',(#924),#22);
#18=STYLED_ITEM('',(#924),#23);
#19=STYLED_ITEM('',(#924),#24);
#20=MANIFOLD_SOLID_BREP('Body1',#497);
#21=MANIFOLD_SOLID_BREP('Body2',#498);
#22=MANIFOLD_SOLID_BREP('Body3',#499);
#23=MANIFOLD_SOLID_BREP('Body6',#500);
#24=MANIFOLD_SOLID_BREP('Body7',#501);
#25=FACE_BOUND('',#99,.T.);
#26=FACE_BOUND('',#100,.T.);
#27=FACE_BOUND('',#102,.T.);
#28=FACE_BOUND('',#103,.T.);
#29=PLANE('',#518);
#30=PLANE('',#522);
#31=PLANE('',#523);
#32=PLANE('',#525);
#33=PLANE('',#531);
#34=PLANE('',#535);
#35=PLANE('',#539);
#36=PLANE('',#543);
#37=PLANE('',#547);
#38=PLANE('',#548);
#39=PLANE('',#560);
#40=PLANE('',#563);
#41=PLANE('',#573);
#42=PLANE('',#576);
#43=PLANE('',#577);
#44=PLANE('',#581);
#45=PLANE('',#582);
#46=PLANE('',#586);
#47=FACE_OUTER_BOUND('',#82,.T.);
#48=FACE_OUTER_BOUND('',#83,.T.);
#49=FACE_OUTER_BOUND('',#84,.T.);
#50=FACE_OUTER_BOUND('',#85,.T.);
#51=FACE_OUTER_BOUND('',#86,.T.);
#52=FACE_OUTER_BOUND('',#87,.T.);
#53=FACE_OUTER_BOUND('',#88,.T.);
#54=FACE_OUTER_BOUND('',#89,.T.);
#55=FACE_OUTER_BOUND('',#90,.T.);
#56=FACE_OUTER_BOUND('',#91,.T.);
#57=FACE_OUTER_BOUND('',#92,.T.);
#58=FACE_OUTER_BOUND('',#93,.T.);
#59=FACE_OUTER_BOUND('',#94,.T.);
#60=FACE_OUTER_BOUND('',#95,.T.);
#61=FACE_OUTER_BOUND('',#96,.T.);
#62=FACE_OUTER_BOUND('',#97,.T.);
#63=FACE_OUTER_BOUND('',#98,.T.);
#64=FACE_OUTER_BOUND('',#101,.T.);
#65=FACE_OUTER_BOUND('',#104,.T.);
#66=FACE_OUTER_BOUND('',#105,.T.);
#67=FACE_OUTER_BOUND('',#106,.T.);
#68=FACE_OUTER_BOUND('',#107,.T.);
#69=FACE_OUTER_BOUND('',#108,.T.);
#70=FACE_OUTER_BOUND('',#109,.T.);
#71=FACE_OUTER_BOUND('',#110,.T.);
#72=FACE_OUTER_BOUND('',#111,.T.);
#73=FACE_OUTER_BOUND('',#112,.T.);
#74=FACE_OUTER_BOUND('',#113,.T.);
#75=FACE_OUTER_BOUND('',#114,.T.);
#76=FACE_OUTER_BOUND('',#115,.T.);
#77=FACE_OUTER_BOUND('',#116,.T.);
#78=FACE_OUTER_BOUND('',#117,.T.);
#79=FACE_OUTER_BOUND('',#118,.T.);
#80=FACE_OUTER_BOUND('',#119,.T.);
#81=FACE_OUTER_BOUND('',#120,.T.);
#82=EDGE_LOOP('',(#319,#320,#321,#322));
#83=EDGE_LOOP('',(#323));
#84=EDGE_LOOP('',(#324,#325,#326,#327));
#85=EDGE_LOOP('',(#328));
#86=EDGE_LOOP('',(#329));
#87=EDGE_LOOP('',(#330));
#88=EDGE_LOOP('',(#331,#332,#333,#334));
#89=EDGE_LOOP('',(#335,#336,#337,#338));
#90=EDGE_LOOP('',(#339,#340,#341,#342));
#91=EDGE_LOOP('',(#343,#344,#345,#346));
#92=EDGE_LOOP('',(#347,#348,#349,#350));
#93=EDGE_LOOP('',(#351,#352,#353,#354));
#94=EDGE_LOOP('',(#355,#356,#357,#358));
#95=EDGE_LOOP('',(#359,#360,#361,#362));
#96=EDGE_LOOP('',(#363,#364,#365,#366));
#97=EDGE_LOOP('',(#367,#368,#369,#370));
#98=EDGE_LOOP('',(#371,#372,#373,#374,#375,#376,#377,#378));
#99=EDGE_LOOP('',(#379));
#100=EDGE_LOOP('',(#380));
#101=EDGE_LOOP('',(#381,#382,#383,#384,#385,#386,#387,#388));
#102=EDGE_LOOP('',(#389));
#103=EDGE_LOOP('',(#390));
#104=EDGE_LOOP('',(#391,#392,#393,#394,#395));
#105=EDGE_LOOP('',(#396,#397,#398,#399,#400,#401));
#106=EDGE_LOOP('',(#402,#403,#404,#405,#406,#407));
#107=EDGE_LOOP('',(#408));
#108=EDGE_LOOP('',(#409,#410,#411,#412,#413));
#109=EDGE_LOOP('',(#414));
#110=EDGE_LOOP('',(#415,#416,#417,#418,#419));
#111=EDGE_LOOP('',(#420,#421,#422,#423,#424,#425,#426));
#112=EDGE_LOOP('',(#427));
#113=EDGE_LOOP('',(#428,#429,#430,#431,#432,#433));
#114=EDGE_LOOP('',(#434));
#115=EDGE_LOOP('',(#435));
#116=EDGE_LOOP('',(#436,#437,#438,#439));
#117=EDGE_LOOP('',(#440));
#118=EDGE_LOOP('',(#441));
#119=EDGE_LOOP('',(#442,#443,#444,#445));
#120=EDGE_LOOP('',(#446));
#121=LINE('',#765,#148);
#122=LINE('',#772,#149);
#123=LINE('',#783,#150);
#124=LINE('',#787,#151);
#125=LINE('',#792,#152);
#126=LINE('',#794,#153);
#127=LINE('',#796,#154);
#128=LINE('',#797,#155);
#129=LINE('',#803,#156);
#130=LINE('',#806,#157);
#131=LINE('',#808,#158);
#132=LINE('',#809,#159);
#133=LINE('',#815,#160);
#134=LINE('',#818,#161);
#135=LINE('',#820,#162);
#136=LINE('',#821,#163);
#137=LINE('',#827,#164);
#138=LINE('',#830,#165);
#139=LINE('',#832,#166);
#140=LINE('',#833,#167);
#141=LINE('',#843,#168);
#142=LINE('',#855,#169);
#143=LINE('',#862,#170);
#144=LINE('',#869,#171);
#145=LINE('',#884,#172);
#146=LINE('',#892,#173);
#147=LINE('',#900,#174);
#148=VECTOR('',#593,4.02957199234844);
#149=VECTOR('',#602,4.12310568705672);
#150=VECTOR('',#617,0.4);
#151=VECTOR('',#622,0.4);
#152=VECTOR('',#627,10.);
#153=VECTOR('',#628,10.);
#154=VECTOR('',#629,10.);
#155=VECTOR('',#630,10.);
#156=VECTOR('',#637,10.);
#157=VECTOR('',#640,10.);
#158=VECTOR('',#641,10.);
#159=VECTOR('',#642,10.);
#160=VECTOR('',#649,10.);
#161=VECTOR('',#652,10.);
#162=VECTOR('',#653,10.);
#163=VECTOR('',#654,10.);
#164=VECTOR('',#661,10.);
#165=VECTOR('',#664,10.);
#166=VECTOR('',#665,10.);
#167=VECTOR('',#666,10.);
#168=VECTOR('',#681,0.4);
#169=VECTOR('',#696,0.4);
#170=VECTOR('',#705,0.400000000000003);
#171=VECTOR('',#714,0.4);
#172=VECTOR('',#733,0.4);
#173=VECTOR('',#744,4.02957199234844);
#174=VECTOR('',#755,4.12310568705672);
#175=CIRCLE('',#516,4.02957199234844);
#176=CIRCLE('',#517,4.02957199234844);
#177=CIRCLE('',#520,4.12310568705672);
#178=CIRCLE('',#521,4.12310568705672);
#179=CIRCLE('',#524,0.4);
#180=CIRCLE('',#526,0.4);
#181=CIRCLE('',#528,0.4);
#182=CIRCLE('',#530,0.4);
#183=CIRCLE('',#533,4.5);
#184=CIRCLE('',#534,4.5);
#185=CIRCLE('',#537,4.5);
#186=CIRCLE('',#538,4.5);
#187=CIRCLE('',#541,4.5);
#188=CIRCLE('',#542,4.5);
#189=CIRCLE('',#545,4.5);
#190=CIRCLE('',#546,4.5);
#191=CIRCLE('',#550,0.4);
#192=CIRCLE('',#551,0.4);
#193=CIRCLE('',#552,0.4);
#194=CIRCLE('',#554,0.799998860061222);
#195=CIRCLE('',#555,0.4);
#196=CIRCLE('',#556,0.4);
#197=CIRCLE('',#558,0.400000000000003);
#198=CIRCLE('',#559,0.400000000000003);
#199=CIRCLE('',#562,0.400000000000003);
#200=CIRCLE('',#565,0.4);
#201=CIRCLE('',#566,0.4);
#202=CIRCLE('',#567,0.4);
#203=CIRCLE('',#569,0.799998860061222);
#204=CIRCLE('',#570,0.4);
#205=CIRCLE('',#571,0.4);
#206=CIRCLE('',#572,0.4);
#207=CIRCLE('',#575,0.4);
#208=CIRCLE('',#578,4.02957199234844);
#209=CIRCLE('',#580,4.02957199234844);
#210=CIRCLE('',#583,4.12310568705672);
#211=CIRCLE('',#585,4.12310568705672);
#212=VERTEX_POINT('',#762);
#213=VERTEX_POINT('',#764);
#214=VERTEX_POINT('',#769);
#215=VERTEX_POINT('',#771);
#216=VERTEX_POINT('',#776);
#217=VERTEX_POINT('',#779);
#218=VERTEX_POINT('',#782);
#219=VERTEX_POINT('',#786);
#220=VERTEX_POINT('',#790);
#221=VERTEX_POINT('',#791);
#222=VERTEX_POINT('',#793);
#223=VERTEX_POINT('',#795);
#224=VERTEX_POINT('',#799);
#225=VERTEX_POINT('',#801);
#226=VERTEX_POINT('',#805);
#227=VERTEX_POINT('',#807);
#228=VERTEX_POINT('',#811);
#229=VERTEX_POINT('',#813);
#230=VERTEX_POINT('',#817);
#231=VERTEX_POINT('',#819);
#232=VERTEX_POINT('',#823);
#233=VERTEX_POINT('',#825);
#234=VERTEX_POINT('',#829);
#235=VERTEX_POINT('',#831);
#236=VERTEX_POINT('',#840);
#237=VERTEX_POINT('',#842);
#238=VERTEX_POINT('',#844);
#239=VERTEX_POINT('',#848);
#240=VERTEX_POINT('',#850);
#241=VERTEX_POINT('',#854);
#242=VERTEX_POINT('',#856);
#243=VERTEX_POINT('',#861);
#244=VERTEX_POINT('',#866);
#245=VERTEX_POINT('',#868);
#246=VERTEX_POINT('',#870);
#247=VERTEX_POINT('',#874);
#248=VERTEX_POINT('',#876);
#249=VERTEX_POINT('',#878);
#250=VERTEX_POINT('',#883);
#251=VERTEX_POINT('',#888);
#252=VERTEX_POINT('',#891);
#253=VERTEX_POINT('',#896);
#254=VERTEX_POINT('',#899);
#255=EDGE_CURVE('',#212,#212,#175,.T.);
#256=EDGE_CURVE('',#212,#213,#121,.T.);
#257=EDGE_CURVE('',#213,#213,#176,.T.);
#258=EDGE_CURVE('',#214,#214,#177,.T.);
#259=EDGE_CURVE('',#214,#215,#122,.T.);
#260=EDGE_CURVE('',#215,#215,#178,.T.);
#261=EDGE_CURVE('',#216,#216,#179,.T.);
#262=EDGE_CURVE('',#217,#217,#180,.T.);
#263=EDGE_CURVE('',#217,#218,#123,.T.);
#264=EDGE_CURVE('',#218,#218,#181,.T.);
#265=EDGE_CURVE('',#216,#219,#124,.T.);
#266=EDGE_CURVE('',#219,#219,#182,.T.);
#267=EDGE_CURVE('',#220,#221,#125,.T.);
#268=EDGE_CURVE('',#221,#222,#126,.T.);
#269=EDGE_CURVE('',#223,#222,#127,.T.);
#270=EDGE_CURVE('',#220,#223,#128,.T.);
#271=EDGE_CURVE('',#224,#220,#183,.T.);
#272=EDGE_CURVE('',#225,#223,#184,.T.);
#273=EDGE_CURVE('',#224,#225,#129,.T.);
#274=EDGE_CURVE('',#226,#224,#130,.T.);
#275=EDGE_CURVE('',#227,#225,#131,.T.);
#276=EDGE_CURVE('',#226,#227,#132,.T.);
#277=EDGE_CURVE('',#228,#226,#185,.T.);
#278=EDGE_CURVE('',#229,#227,#186,.T.);
#279=EDGE_CURVE('',#228,#229,#133,.T.);
#280=EDGE_CURVE('',#230,#228,#134,.T.);
#281=EDGE_CURVE('',#231,#229,#135,.T.);
#282=EDGE_CURVE('',#230,#231,#136,.T.);
#283=EDGE_CURVE('',#232,#230,#187,.T.);
#284=EDGE_CURVE('',#233,#231,#188,.T.);
#285=EDGE_CURVE('',#232,#233,#137,.T.);
#286=EDGE_CURVE('',#234,#232,#138,.T.);
#287=EDGE_CURVE('',#235,#233,#139,.T.);
#288=EDGE_CURVE('',#234,#235,#140,.T.);
#289=EDGE_CURVE('',#221,#234,#189,.T.);
#290=EDGE_CURVE('',#222,#235,#190,.T.);
#291=EDGE_CURVE('',#236,#236,#191,.T.);
#292=EDGE_CURVE('',#236,#237,#141,.T.);
#293=EDGE_CURVE('',#237,#238,#192,.T.);
#294=EDGE_CURVE('',#238,#237,#193,.T.);
#295=EDGE_CURVE('',#238,#239,#194,.T.);
#296=EDGE_CURVE('',#239,#240,#195,.T.);
#297=EDGE_CURVE('',#240,#239,#196,.T.);
#298=EDGE_CURVE('',#240,#241,#142,.T.);
#299=EDGE_CURVE('',#242,#241,#197,.T.);
#300=EDGE_CURVE('',#241,#242,#198,.T.);
#301=EDGE_CURVE('',#242,#243,#143,.T.);
#302=EDGE_CURVE('',#243,#243,#199,.T.);
#303=EDGE_CURVE('',#244,#244,#200,.T.);
#304=EDGE_CURVE('',#244,#245,#144,.T.);
#305=EDGE_CURVE('',#245,#246,#201,.T.);
#306=EDGE_CURVE('',#246,#245,#202,.T.);
#307=EDGE_CURVE('',#246,#247,#203,.T.);
#308=EDGE_CURVE('',#247,#248,#204,.T.);
#309=EDGE_CURVE('',#248,#249,#205,.T.);
#310=EDGE_CURVE('',#249,#247,#206,.T.);
#311=EDGE_CURVE('',#248,#250,#145,.T.);
#312=EDGE_CURVE('',#250,#250,#207,.T.);
#313=EDGE_CURVE('',#251,#251,#208,.T.);
#314=EDGE_CURVE('',#251,#252,#146,.T.);
#315=EDGE_CURVE('',#252,#252,#209,.T.);
#316=EDGE_CURVE('',#253,#253,#210,.T.);
#317=EDGE_CURVE('',#253,#254,#147,.T.);
#318=EDGE_CURVE('',#254,#254,#211,.T.);
#319=ORIENTED_EDGE('',*,*,#255,.F.);
#320=ORIENTED_EDGE('',*,*,#256,.T.);
#321=ORIENTED_EDGE('',*,*,#257,.T.);
#322=ORIENTED_EDGE('',*,*,#256,.F.);
#323=ORIENTED_EDGE('',*,*,#257,.F.);
#324=ORIENTED_EDGE('',*,*,#258,.F.);
#325=ORIENTED_EDGE('',*,*,#259,.T.);
#326=ORIENTED_EDGE('',*,*,#260,.T.);
#327=ORIENTED_EDGE('',*,*,#259,.F.);
#328=ORIENTED_EDGE('',*,*,#260,.F.);
#329=ORIENTED_EDGE('',*,*,#261,.F.);
#330=ORIENTED_EDGE('',*,*,#262,.F.);
#331=ORIENTED_EDGE('',*,*,#262,.T.);
#332=ORIENTED_EDGE('',*,*,#263,.T.);
#333=ORIENTED_EDGE('',*,*,#264,.F.);
#334=ORIENTED_EDGE('',*,*,#263,.F.);
#335=ORIENTED_EDGE('',*,*,#261,.T.);
#336=ORIENTED_EDGE('',*,*,#265,.T.);
#337=ORIENTED_EDGE('',*,*,#266,.F.);
#338=ORIENTED_EDGE('',*,*,#265,.F.);
#339=ORIENTED_EDGE('',*,*,#267,.T.);
#340=ORIENTED_EDGE('',*,*,#268,.T.);
#341=ORIENTED_EDGE('',*,*,#269,.F.);
#342=ORIENTED_EDGE('',*,*,#270,.F.);
#343=ORIENTED_EDGE('',*,*,#271,.T.);
#344=ORIENTED_EDGE('',*,*,#270,.T.);
#345=ORIENTED_EDGE('',*,*,#272,.F.);
#346=ORIENTED_EDGE('',*,*,#273,.F.);
#347=ORIENTED_EDGE('',*,*,#274,.T.);
#348=ORIENTED_EDGE('',*,*,#273,.T.);
#349=ORIENTED_EDGE('',*,*,#275,.F.);
#350=ORIENTED_EDGE('',*,*,#276,.F.);
#351=ORIENTED_EDGE('',*,*,#277,.T.);
#352=ORIENTED_EDGE('',*,*,#276,.T.);
#353=ORIENTED_EDGE('',*,*,#278,.F.);
#354=ORIENTED_EDGE('',*,*,#279,.F.);
#355=ORIENTED_EDGE('',*,*,#280,.T.);
#356=ORIENTED_EDGE('',*,*,#279,.T.);
#357=ORIENTED_EDGE('',*,*,#281,.F.);
#358=ORIENTED_EDGE('',*,*,#282,.F.);
#359=ORIENTED_EDGE('',*,*,#283,.T.);
#360=ORIENTED_EDGE('',*,*,#282,.T.);
#361=ORIENTED_EDGE('',*,*,#284,.F.);
#362=ORIENTED_EDGE('',*,*,#285,.F.);
#363=ORIENTED_EDGE('',*,*,#286,.T.);
#364=ORIENTED_EDGE('',*,*,#285,.T.);
#365=ORIENTED_EDGE('',*,*,#287,.F.);
#366=ORIENTED_EDGE('',*,*,#288,.F.);
#367=ORIENTED_EDGE('',*,*,#289,.T.);
#368=ORIENTED_EDGE('',*,*,#288,.T.);
#369=ORIENTED_EDGE('',*,*,#290,.F.);
#370=ORIENTED_EDGE('',*,*,#268,.F.);
#371=ORIENTED_EDGE('',*,*,#290,.T.);
#372=ORIENTED_EDGE('',*,*,#287,.T.);
#373=ORIENTED_EDGE('',*,*,#284,.T.);
#374=ORIENTED_EDGE('',*,*,#281,.T.);
#375=ORIENTED_EDGE('',*,*,#278,.T.);
#376=ORIENTED_EDGE('',*,*,#275,.T.);
#377=ORIENTED_EDGE('',*,*,#272,.T.);
#378=ORIENTED_EDGE('',*,*,#269,.T.);
#379=ORIENTED_EDGE('',*,*,#264,.T.);
#380=ORIENTED_EDGE('',*,*,#266,.T.);
#381=ORIENTED_EDGE('',*,*,#289,.F.);
#382=ORIENTED_EDGE('',*,*,#267,.F.);
#383=ORIENTED_EDGE('',*,*,#271,.F.);
#384=ORIENTED_EDGE('',*,*,#274,.F.);
#385=ORIENTED_EDGE('',*,*,#277,.F.);
#386=ORIENTED_EDGE('',*,*,#280,.F.);
#387=ORIENTED_EDGE('',*,*,#283,.F.);
#388=ORIENTED_EDGE('',*,*,#286,.F.);
#389=ORIENTED_EDGE('',*,*,#255,.T.);
#390=ORIENTED_EDGE('',*,*,#258,.T.);
#391=ORIENTED_EDGE('',*,*,#291,.F.);
#392=ORIENTED_EDGE('',*,*,#292,.T.);
#393=ORIENTED_EDGE('',*,*,#293,.T.);
#394=ORIENTED_EDGE('',*,*,#294,.T.);
#395=ORIENTED_EDGE('',*,*,#292,.F.);
#396=ORIENTED_EDGE('',*,*,#293,.F.);
#397=ORIENTED_EDGE('',*,*,#294,.F.);
#398=ORIENTED_EDGE('',*,*,#295,.T.);
#399=ORIENTED_EDGE('',*,*,#296,.T.);
#400=ORIENTED_EDGE('',*,*,#297,.T.);
#401=ORIENTED_EDGE('',*,*,#295,.F.);
#402=ORIENTED_EDGE('',*,*,#297,.F.);
#403=ORIENTED_EDGE('',*,*,#298,.T.);
#404=ORIENTED_EDGE('',*,*,#299,.F.);
#405=ORIENTED_EDGE('',*,*,#300,.F.);
#406=ORIENTED_EDGE('',*,*,#298,.F.);
#407=ORIENTED_EDGE('',*,*,#296,.F.);
#408=ORIENTED_EDGE('',*,*,#291,.T.);
#409=ORIENTED_EDGE('',*,*,#299,.T.);
#410=ORIENTED_EDGE('',*,*,#300,.T.);
#411=ORIENTED_EDGE('',*,*,#301,.T.);
#412=ORIENTED_EDGE('',*,*,#302,.F.);
#413=ORIENTED_EDGE('',*,*,#301,.F.);
#414=ORIENTED_EDGE('',*,*,#302,.T.);
#415=ORIENTED_EDGE('',*,*,#303,.F.);
#416=ORIENTED_EDGE('',*,*,#304,.T.);
#417=ORIENTED_EDGE('',*,*,#305,.T.);
#418=ORIENTED_EDGE('',*,*,#306,.T.);
#419=ORIENTED_EDGE('',*,*,#304,.F.);
#420=ORIENTED_EDGE('',*,*,#305,.F.);
#421=ORIENTED_EDGE('',*,*,#306,.F.);
#422=ORIENTED_EDGE('',*,*,#307,.T.);
#423=ORIENTED_EDGE('',*,*,#308,.T.);
#424=ORIENTED_EDGE('',*,*,#309,.T.);
#425=ORIENTED_EDGE('',*,*,#310,.T.);
#426=ORIENTED_EDGE('',*,*,#307,.F.);
#427=ORIENTED_EDGE('',*,*,#303,.T.);
#428=ORIENTED_EDGE('',*,*,#310,.F.);
#429=ORIENTED_EDGE('',*,*,#309,.F.);
#430=ORIENTED_EDGE('',*,*,#311,.T.);
#431=ORIENTED_EDGE('',*,*,#312,.F.);
#432=ORIENTED_EDGE('',*,*,#311,.F.);
#433=ORIENTED_EDGE('',*,*,#308,.F.);
#434=ORIENTED_EDGE('',*,*,#312,.T.);
#435=ORIENTED_EDGE('',*,*,#313,.F.);
#436=ORIENTED_EDGE('',*,*,#313,.T.);
#437=ORIENTED_EDGE('',*,*,#314,.T.);
#438=ORIENTED_EDGE('',*,*,#315,.F.);
#439=ORIENTED_EDGE('',*,*,#314,.F.);
#440=ORIENTED_EDGE('',*,*,#315,.T.);
#441=ORIENTED_EDGE('',*,*,#316,.F.);
#442=ORIENTED_EDGE('',*,*,#316,.T.);
#443=ORIENTED_EDGE('',*,*,#317,.T.);
#444=ORIENTED_EDGE('',*,*,#318,.F.);
#445=ORIENTED_EDGE('',*,*,#317,.F.);
#446=ORIENTED_EDGE('',*,*,#318,.T.);
#447=CYLINDRICAL_SURFACE('',#515,4.02957199234844);
#448=CYLINDRICAL_SURFACE('',#519,4.12310568705672);
#449=CYLINDRICAL_SURFACE('',#527,0.4);
#450=CYLINDRICAL_SURFACE('',#529,0.4);
#451=CYLINDRICAL_SURFACE('',#532,4.5);
#452=CYLINDRICAL_SURFACE('',#536,4.5);
#453=CYLINDRICAL_SURFACE('',#540,4.5);
#454=CYLINDRICAL_SURFACE('',#544,4.5);
#455=CYLINDRICAL_SURFACE('',#549,0.4);
#456=CYLINDRICAL_SURFACE('',#557,0.4);
#457=CYLINDRICAL_SURFACE('',#561,0.400000000000003);
#458=CYLINDRICAL_SURFACE('',#564,0.4);
#459=CYLINDRICAL_SURFACE('',#574,0.4);
#460=CYLINDRICAL_SURFACE('',#579,4.02957199234844);
#461=CYLINDRICAL_SURFACE('',#584,4.12310568705672);
#462=ADVANCED_FACE('',(#47),#447,.F.);
#463=ADVANCED_FACE('',(#48),#29,.T.);
#464=ADVANCED_FACE('',(#49),#448,.F.);
#465=ADVANCED_FACE('',(#50),#30,.T.);
#466=ADVANCED_FACE('',(#51),#31,.T.);
#467=ADVANCED_FACE('',(#52),#32,.T.);
#468=ADVANCED_FACE('',(#53),#449,.T.);
#469=ADVANCED_FACE('',(#54),#450,.T.);
#470=ADVANCED_FACE('',(#55),#33,.T.);
#471=ADVANCED_FACE('',(#56),#451,.T.);
#472=ADVANCED_FACE('',(#57),#34,.T.);
#473=ADVANCED_FACE('',(#58),#452,.T.);
#474=ADVANCED_FACE('',(#59),#35,.T.);
#475=ADVANCED_FACE('',(#60),#453,.T.);
#476=ADVANCED_FACE('',(#61),#36,.T.);
#477=ADVANCED_FACE('',(#62),#454,.T.);
#478=ADVANCED_FACE('',(#63,#25,#26),#37,.T.);
#479=ADVANCED_FACE('',(#64,#27,#28),#38,.F.);
#480=ADVANCED_FACE('',(#65),#455,.T.);
#481=ADVANCED_FACE('',(#66),#13,.T.);
#482=ADVANCED_FACE('',(#67),#456,.T.);
#483=ADVANCED_FACE('',(#68),#39,.F.);
#484=ADVANCED_FACE('',(#69),#457,.T.);
#485=ADVANCED_FACE('',(#70),#40,.T.);
#486=ADVANCED_FACE('',(#71),#458,.T.);
#487=ADVANCED_FACE('',(#72),#14,.T.);
#488=ADVANCED_FACE('',(#73),#41,.F.);
#489=ADVANCED_FACE('',(#74),#459,.T.);
#490=ADVANCED_FACE('',(#75),#42,.T.);
#491=ADVANCED_FACE('',(#76),#43,.T.);
#492=ADVANCED_FACE('',(#77),#460,.T.);
#493=ADVANCED_FACE('',(#78),#44,.F.);
#494=ADVANCED_FACE('',(#79),#45,.T.);
#495=ADVANCED_FACE('',(#80),#461,.T.);
#496=ADVANCED_FACE('',(#81),#46,.F.);
#497=CLOSED_SHELL('',(#462,#463,#464,#465,#466,#467,#468,#469,#470,#471,
#472,#473,#474,#475,#476,#477,#478,#479));
#498=CLOSED_SHELL('',(#480,#481,#482,#483,#484,#485));
#499=CLOSED_SHELL('',(#486,#487,#488,#489,#490));
#500=CLOSED_SHELL('',(#491,#492,#493));
#501=CLOSED_SHELL('',(#494,#495,#496));
#502=DERIVED_UNIT_ELEMENT(#504,1.);
#503=DERIVED_UNIT_ELEMENT(#908,-3.);
#504=(
MASS_UNIT()
NAMED_UNIT(*)
SI_UNIT(.KILO.,.GRAM.)
);
#505=DERIVED_UNIT((#502,#503));
#506=MEASURE_REPRESENTATION_ITEM('density measure',
POSITIVE_RATIO_MEASURE(7850.),#505);
#507=PROPERTY_DEFINITION_REPRESENTATION(#512,#509);
#508=PROPERTY_DEFINITION_REPRESENTATION(#513,#510);
#509=REPRESENTATION('material name',(#511),#905);
#510=REPRESENTATION('density',(#506),#905);
#511=DESCRIPTIVE_REPRESENTATION_ITEM('Steel','Steel');
#512=PROPERTY_DEFINITION('material property','material name',#915);
#513=PROPERTY_DEFINITION('material property','density of part',#915);
#514=AXIS2_PLACEMENT_3D('',#760,#587,#588);
#515=AXIS2_PLACEMENT_3D('',#761,#589,#590);
#516=AXIS2_PLACEMENT_3D('',#763,#591,#592);
#517=AXIS2_PLACEMENT_3D('',#766,#594,#595);
#518=AXIS2_PLACEMENT_3D('',#767,#596,#597);
#519=AXIS2_PLACEMENT_3D('',#768,#598,#599);
#520=AXIS2_PLACEMENT_3D('',#770,#600,#601);
#521=AXIS2_PLACEMENT_3D('',#773,#603,#604);
#522=AXIS2_PLACEMENT_3D('',#774,#605,#606);
#523=AXIS2_PLACEMENT_3D('',#775,#607,#608);
#524=AXIS2_PLACEMENT_3D('',#777,#609,#610);
#525=AXIS2_PLACEMENT_3D('',#778,#611,#612);
#526=AXIS2_PLACEMENT_3D('',#780,#613,#614);
#527=AXIS2_PLACEMENT_3D('',#781,#615,#616);
#528=AXIS2_PLACEMENT_3D('',#784,#618,#619);
#529=AXIS2_PLACEMENT_3D('',#785,#620,#621);
#530=AXIS2_PLACEMENT_3D('',#788,#623,#624);
#531=AXIS2_PLACEMENT_3D('',#789,#625,#626);
#532=AXIS2_PLACEMENT_3D('',#798,#631,#632);
#533=AXIS2_PLACEMENT_3D('',#800,#633,#634);
#534=AXIS2_PLACEMENT_3D('',#802,#635,#636);
#535=AXIS2_PLACEMENT_3D('',#804,#638,#639);
#536=AXIS2_PLACEMENT_3D('',#810,#643,#644);
#537=AXIS2_PLACEMENT_3D('',#812,#645,#646);
#538=AXIS2_PLACEMENT_3D('',#814,#647,#648);
#539=AXIS2_PLACEMENT_3D('',#816,#650,#651);
#540=AXIS2_PLACEMENT_3D('',#822,#655,#656);
#541=AXIS2_PLACEMENT_3D('',#824,#657,#658);
#542=AXIS2_PLACEMENT_3D('',#826,#659,#660);
#543=AXIS2_PLACEMENT_3D('',#828,#662,#663);
#544=AXIS2_PLACEMENT_3D('',#834,#667,#668);
#545=AXIS2_PLACEMENT_3D('',#835,#669,#670);
#546=AXIS2_PLACEMENT_3D('',#836,#671,#672);
#547=AXIS2_PLACEMENT_3D('',#837,#673,#674);
#548=AXIS2_PLACEMENT_3D('',#838,#675,#676);
#549=AXIS2_PLACEMENT_3D('',#839,#677,#678);
#550=AXIS2_PLACEMENT_3D('',#841,#679,#680);
#551=AXIS2_PLACEMENT_3D('',#845,#682,#683);
#552=AXIS2_PLACEMENT_3D('',#846,#684,#685);
#553=AXIS2_PLACEMENT_3D('',#847,#686,#687);
#554=AXIS2_PLACEMENT_3D('',#849,#688,#689);
#555=AXIS2_PLACEMENT_3D('',#851,#690,#691);
#556=AXIS2_PLACEMENT_3D('',#852,#692,#693);
#557=AXIS2_PLACEMENT_3D('',#853,#694,#695);
#558=AXIS2_PLACEMENT_3D('',#857,#697,#698);
#559=AXIS2_PLACEMENT_3D('',#858,#699,#700);
#560=AXIS2_PLACEMENT_3D('',#859,#701,#702);
#561=AXIS2_PLACEMENT_3D('',#860,#703,#704);
#562=AXIS2_PLACEMENT_3D('',#863,#706,#707);
#563=AXIS2_PLACEMENT_3D('',#864,#708,#709);
#564=AXIS2_PLACEMENT_3D('',#865,#710,#711);
#565=AXIS2_PLACEMENT_3D('',#867,#712,#713);
#566=AXIS2_PLACEMENT_3D('',#871,#715,#716);
#567=AXIS2_PLACEMENT_3D('',#872,#717,#718);
#568=AXIS2_PLACEMENT_3D('',#873,#719,#720);
#569=AXIS2_PLACEMENT_3D('',#875,#721,#722);
#570=AXIS2_PLACEMENT_3D('',#877,#723,#724);
#571=AXIS2_PLACEMENT_3D('',#879,#725,#726);
#572=AXIS2_PLACEMENT_3D('',#880,#727,#728);
#573=AXIS2_PLACEMENT_3D('',#881,#729,#730);
#574=AXIS2_PLACEMENT_3D('',#882,#731,#732);
#575=AXIS2_PLACEMENT_3D('',#885,#734,#735);
#576=AXIS2_PLACEMENT_3D('',#886,#736,#737);
#577=AXIS2_PLACEMENT_3D('',#887,#738,#739);
#578=AXIS2_PLACEMENT_3D('',#889,#740,#741);
#579=AXIS2_PLACEMENT_3D('',#890,#742,#743);
#580=AXIS2_PLACEMENT_3D('',#893,#745,#746);
#581=AXIS2_PLACEMENT_3D('',#894,#747,#748);
#582=AXIS2_PLACEMENT_3D('',#895,#749,#750);
#583=AXIS2_PLACEMENT_3D('',#897,#751,#752);
#584=AXIS2_PLACEMENT_3D('',#898,#753,#754);
#585=AXIS2_PLACEMENT_3D('',#901,#756,#757);
#586=AXIS2_PLACEMENT_3D('',#902,#758,#759);
#587=DIRECTION('axis',(0.,0.,1.));
#588=DIRECTION('refdir',(1.,0.,0.));
#589=DIRECTION('center_axis',(0.,0.,1.));
#590=DIRECTION('ref_axis',(1.,0.,0.));
#591=DIRECTION('center_axis',(0.,0.,1.));
#592=DIRECTION('ref_axis',(1.,0.,0.));
#593=DIRECTION('',(0.,0.,1.));
#594=DIRECTION('center_axis',(0.,0.,1.));
#595=DIRECTION('ref_axis',(1.,0.,0.));
#596=DIRECTION('center_axis',(0.,0.,-1.));
#597=DIRECTION('ref_axis',(1.,0.,0.));
#598=DIRECTION('center_axis',(0.,0.,1.));
#599=DIRECTION('ref_axis',(1.,0.,0.));
#600=DIRECTION('center_axis',(0.,0.,1.));
#601=DIRECTION('ref_axis',(1.,0.,0.));
#602=DIRECTION('',(0.,0.,1.));
#603=DIRECTION('center_axis',(0.,0.,1.));
#604=DIRECTION('ref_axis',(1.,0.,0.));
#605=DIRECTION('center_axis',(0.,0.,-1.));
#606=DIRECTION('ref_axis',(1.,0.,0.));
#607=DIRECTION('center_axis',(0.,0.,1.));
#608=DIRECTION('ref_axis',(-1.,0.,0.));
#609=DIRECTION('center_axis',(0.,0.,-1.));
#610=DIRECTION('ref_axis',(-1.,0.,0.));
#611=DIRECTION('center_axis',(0.,0.,1.));
#612=DIRECTION('ref_axis',(-1.,0.,0.));
#613=DIRECTION('center_axis',(0.,0.,-1.));
#614=DIRECTION('ref_axis',(-1.,0.,0.));
#615=DIRECTION('center_axis',(0.,0.,1.));
#616=DIRECTION('ref_axis',(-1.,0.,0.));
#617=DIRECTION('',(0.,0.,-1.));
#618=DIRECTION('center_axis',(0.,0.,-1.));
#619=DIRECTION('ref_axis',(-1.,0.,0.));
#620=DIRECTION('center_axis',(0.,0.,1.));
#621=DIRECTION('ref_axis',(-1.,0.,0.));
#622=DIRECTION('',(0.,0.,-1.));
#623=DIRECTION('center_axis',(0.,0.,-1.));
#624=DIRECTION('ref_axis',(-1.,0.,0.));
#625=DIRECTION('center_axis',(0.,-1.,0.));
#626=DIRECTION('ref_axis',(1.,0.,0.));
#627=DIRECTION('',(1.,0.,0.));
#628=DIRECTION('',(0.,0.,1.));
#629=DIRECTION('',(1.,0.,0.));
#630=DIRECTION('',(0.,0.,1.));
#631=DIRECTION('center_axis',(0.,0.,1.));
#632=DIRECTION('ref_axis',(-1.,0.,0.));
#633=DIRECTION('center_axis',(0.,0.,1.));
#634=DIRECTION('ref_axis',(-1.,0.,0.));
#635=DIRECTION('center_axis',(0.,0.,1.));
#636=DIRECTION('ref_axis',(-1.,0.,0.));
#637=DIRECTION('',(0.,0.,1.));
#638=DIRECTION('center_axis',(-1.,0.,0.));
#639=DIRECTION('ref_axis',(0.,-1.,0.));
#640=DIRECTION('',(0.,-1.,0.));
#641=DIRECTION('',(0.,-1.,0.));
#642=DIRECTION('',(0.,0.,1.));
#643=DIRECTION('center_axis',(0.,0.,1.));
#644=DIRECTION('ref_axis',(0.,1.,0.));
#645=DIRECTION('center_axis',(0.,0.,1.));
#646=DIRECTION('ref_axis',(0.,1.,0.));
#647=DIRECTION('center_axis',(0.,0.,1.));
#648=DIRECTION('ref_axis',(0.,1.,0.));
#649=DIRECTION('',(0.,0.,1.));
#650=DIRECTION('center_axis',(-2.01858731750028E-16,1.,0.));
#651=DIRECTION('ref_axis',(-1.,-2.01858731750028E-16,0.));
#652=DIRECTION('',(-1.,-2.01858731750028E-16,0.));
#653=DIRECTION('',(-1.,-2.01858731750028E-16,0.));
#654=DIRECTION('',(0.,0.,1.));
#655=DIRECTION('center_axis',(0.,0.,1.));
#656=DIRECTION('ref_axis',(1.,0.,0.));
#657=DIRECTION('center_axis',(0.,0.,1.));
#658=DIRECTION('ref_axis',(1.,0.,0.));
#659=DIRECTION('center_axis',(0.,0.,1.));
#660=DIRECTION('ref_axis',(1.,0.,0.));
#661=DIRECTION('',(0.,0.,1.));
#662=DIRECTION('center_axis',(1.,-2.22044604925031E-15,0.));
#663=DIRECTION('ref_axis',(2.22044604925031E-15,1.,0.));
#664=DIRECTION('',(2.22044604925031E-15,1.,0.));
#665=DIRECTION('',(2.22044604925031E-15,1.,0.));
#666=DIRECTION('',(0.,0.,1.));
#667=DIRECTION('center_axis',(0.,0.,1.));
#668=DIRECTION('ref_axis',(0.,-1.,0.));
#669=DIRECTION('center_axis',(0.,0.,1.));
#670=DIRECTION('ref_axis',(0.,-1.,0.));
#671=DIRECTION('center_axis',(0.,0.,1.));
#672=DIRECTION('ref_axis',(0.,-1.,0.));
#673=DIRECTION('center_axis',(0.,0.,1.));
#674=DIRECTION('ref_axis',(1.,0.,0.));
#675=DIRECTION('center_axis',(0.,0.,1.));
#676=DIRECTION('ref_axis',(1.,0.,0.));
#677=DIRECTION('center_axis',(5.97670757640783E-32,-0.116303318954144,-0.993213742353704));
#678=DIRECTION('ref_axis',(1.,-8.08460988663169E-16,9.46691454385758E-17));
#679=DIRECTION('center_axis',(7.54692616986106E-16,-0.116303318954149,-0.993213742353704));
#680=DIRECTION('ref_axis',(1.,-7.20687732517496E-16,8.4424022388206E-16));
#681=DIRECTION('',(-5.97670757640783E-32,0.116303318954144,0.993213742353704));
#682=DIRECTION('center_axis',(7.54692616986106E-16,-0.116303318954149,-0.993213742353704));
#683=DIRECTION('ref_axis',(1.,-7.20687732517496E-16,8.4424022388206E-16));
#684=DIRECTION('center_axis',(7.54692616986106E-16,-0.116303318954149,-0.993213742353704));
#685=DIRECTION('ref_axis',(1.,-7.20687732517496E-16,8.4424022388206E-16));
#686=DIRECTION('center_axis',(1.,-8.5401771125012E-16,0.));
#687=DIRECTION('ref_axis',(0.,0.,-1.));
#688=DIRECTION('center_axis',(-1.,8.5401771125012E-16,0.));
#689=DIRECTION('ref_axis',(0.,0.,-1.));
#690=DIRECTION('center_axis',(0.,-1.,0.));
#691=DIRECTION('ref_axis',(1.,0.,0.));
#692=DIRECTION('center_axis',(0.,-1.,0.));
#693=DIRECTION('ref_axis',(1.,0.,0.));
#694=DIRECTION('center_axis',(-7.40148247021648E-16,-1.,0.));
#695=DIRECTION('ref_axis',(1.,-7.40148247021648E-16,0.));
#696=DIRECTION('',(7.40148247021648E-16,1.,0.));
#697=DIRECTION('center_axis',(0.,1.,0.));
#698=DIRECTION('ref_axis',(-1.,0.,0.));
#699=DIRECTION('center_axis',(0.,1.,0.));
#700=DIRECTION('ref_axis',(-1.,0.,0.));
#701=DIRECTION('center_axis',(-7.54692616986106E-16,0.116303318954149,0.993213742353704));
#702=DIRECTION('ref_axis',(8.13984899914184E-16,0.993213742353704,-0.116303318954149));
#703=DIRECTION('center_axis',(0.,-1.,0.));
#704=DIRECTION('ref_axis',(-1.,0.,0.));
#705=DIRECTION('',(0.,1.,0.));
#706=DIRECTION('center_axis',(0.,1.,0.));
#707=DIRECTION('ref_axis',(-1.,0.,0.));
#708=DIRECTION('center_axis',(0.,1.,0.));
#709=DIRECTION('ref_axis',(-1.,0.,0.));
#710=DIRECTION('center_axis',(5.97670757640783E-32,-0.116303318954144,-0.993213742353704));
#711=DIRECTION('ref_axis',(1.,-8.08460988663169E-16,9.46691454385758E-17));
#712=DIRECTION('center_axis',(7.54692616986106E-16,-0.116303318954149,-0.993213742353704));
#713=DIRECTION('ref_axis',(1.,-7.20687732517496E-16,8.4424022388206E-16));
#714=DIRECTION('',(-5.97670757640783E-32,0.116303318954144,0.993213742353704));
#715=DIRECTION('center_axis',(7.54692616986106E-16,-0.116303318954149,-0.993213742353704));
#716=DIRECTION('ref_axis',(1.,-7.20687732517496E-16,8.4424022388206E-16));
#717=DIRECTION('center_axis',(7.54692616986106E-16,-0.116303318954149,-0.993213742353704));
#718=DIRECTION('ref_axis',(1.,-7.20687732517496E-16,8.4424022388206E-16));
#719=DIRECTION('center_axis',(1.,-8.5401771125012E-16,0.));
#720=DIRECTION('ref_axis',(0.,0.,-1.));
#721=DIRECTION('center_axis',(-1.,8.5401771125012E-16,0.));
#722=DIRECTION('ref_axis',(0.,0.,-1.));
#723=DIRECTION('center_axis',(0.,-1.,0.));
#724=DIRECTION('ref_axis',(1.,0.,0.));
#725=DIRECTION('center_axis',(0.,-1.,0.));
#726=DIRECTION('ref_axis',(1.,0.,0.));
#727=DIRECTION('center_axis',(0.,-1.,0.));
#728=DIRECTION('ref_axis',(1.,0.,0.));
#729=DIRECTION('center_axis',(-7.54692616986106E-16,0.116303318954149,0.993213742353704));
#730=DIRECTION('ref_axis',(8.13984899914184E-16,0.993213742353704,-0.116303318954149));
#731=DIRECTION('center_axis',(0.,-1.,0.));
#732=DIRECTION('ref_axis',(-1.,0.,0.));
#733=DIRECTION('',(0.,1.,0.));
#734=DIRECTION('center_axis',(0.,1.,0.));
#735=DIRECTION('ref_axis',(-1.,0.,0.));
#736=DIRECTION('center_axis',(0.,1.,0.));
#737=DIRECTION('ref_axis',(-1.,0.,0.));
#738=DIRECTION('center_axis',(0.,0.,-1.));
#739=DIRECTION('ref_axis',(1.,0.,0.));
#740=DIRECTION('center_axis',(0.,0.,1.));
#741=DIRECTION('ref_axis',(1.,0.,0.));
#742=DIRECTION('center_axis',(0.,0.,-1.));
#743=DIRECTION('ref_axis',(1.,0.,0.));
#744=DIRECTION('',(0.,0.,1.));
#745=DIRECTION('center_axis',(0.,0.,1.));
#746=DIRECTION('ref_axis',(1.,0.,0.));
#747=DIRECTION('center_axis',(0.,0.,-1.));
#748=DIRECTION('ref_axis',(1.,0.,0.));
#749=DIRECTION('center_axis',(0.,0.,-1.));
#750=DIRECTION('ref_axis',(1.,0.,0.));
#751=DIRECTION('center_axis',(0.,0.,1.));
#752=DIRECTION('ref_axis',(1.,0.,0.));
#753=DIRECTION('center_axis',(0.,0.,-1.));
#754=DIRECTION('ref_axis',(1.,0.,0.));
#755=DIRECTION('',(0.,0.,1.));
#756=DIRECTION('center_axis',(0.,0.,1.));
#757=DIRECTION('ref_axis',(1.,0.,0.));
#758=DIRECTION('center_axis',(0.,0.,-1.));
#759=DIRECTION('ref_axis',(1.,0.,0.));
#760=CARTESIAN_POINT('',(0.,0.,0.));
#761=CARTESIAN_POINT('Origin',(5.00000007450581,5.00000007450581,0.));
#762=CARTESIAN_POINT('',(0.970428082157371,5.00000007450581,0.));
#763=CARTESIAN_POINT('Origin',(5.00000007450581,5.00000007450581,0.));
#764=CARTESIAN_POINT('',(0.970428082157371,5.00000007450581,1.));
#765=CARTESIAN_POINT('',(0.970428082157371,5.00000007450581,0.));
#766=CARTESIAN_POINT('Origin',(5.00000007450581,5.00000007450581,1.));
#767=CARTESIAN_POINT('Origin',(5.00000007450581,5.00000007450581,1.));
#768=CARTESIAN_POINT('Origin',(15.0000002235174,5.00000007450581,0.));
#769=CARTESIAN_POINT('',(10.8768945364607,5.00000007450581,0.));
#770=CARTESIAN_POINT('Origin',(15.0000002235174,5.00000007450581,0.));
#771=CARTESIAN_POINT('',(10.8768945364607,5.00000007450581,1.));
#772=CARTESIAN_POINT('',(10.8768945364607,5.00000007450581,0.));
#773=CARTESIAN_POINT('Origin',(15.0000002235174,5.00000007450581,1.));
#774=CARTESIAN_POINT('Origin',(15.0000002235174,5.00000007450581,1.));
#775=CARTESIAN_POINT('Origin',(17.5,5.,22.94));
#776=CARTESIAN_POINT('',(17.9,5.,22.94));
#777=CARTESIAN_POINT('Origin',(17.5,5.,22.94));
#778=CARTESIAN_POINT('Origin',(2.5,5.,22.94));
#779=CARTESIAN_POINT('',(2.9,5.,22.94));
#780=CARTESIAN_POINT('Origin',(2.5,5.,22.94));
#781=CARTESIAN_POINT('Origin',(2.5,5.,22.));
#782=CARTESIAN_POINT('',(2.9,5.,22.));
#783=CARTESIAN_POINT('',(2.9,5.,22.));
#784=CARTESIAN_POINT('Origin',(2.5,5.,22.));
#785=CARTESIAN_POINT('Origin',(17.5,5.,22.));
#786=CARTESIAN_POINT('',(17.9,5.,22.));
#787=CARTESIAN_POINT('',(17.9,5.,22.));
#788=CARTESIAN_POINT('Origin',(17.5,5.,22.));
#789=CARTESIAN_POINT('Origin',(4.5,0.,0.));
#790=CARTESIAN_POINT('',(4.5,0.,0.));
#791=CARTESIAN_POINT('',(15.5,0.,0.));
#792=CARTESIAN_POINT('',(4.5,0.,0.));
#793=CARTESIAN_POINT('',(15.5,0.,22.));
#794=CARTESIAN_POINT('',(15.5,0.,0.));
#795=CARTESIAN_POINT('',(4.5,0.,22.));
#796=CARTESIAN_POINT('',(4.5,0.,22.));
#797=CARTESIAN_POINT('',(4.5,0.,0.));
#798=CARTESIAN_POINT('Origin',(4.5,4.5,0.));
#799=CARTESIAN_POINT('',(0.,4.5,0.));
#800=CARTESIAN_POINT('Origin',(4.5,4.5,0.));
#801=CARTESIAN_POINT('',(0.,4.5,22.));
#802=CARTESIAN_POINT('Origin',(4.5,4.5,22.));
#803=CARTESIAN_POINT('',(0.,4.5,0.));
#804=CARTESIAN_POINT('Origin',(0.,5.5,0.));
#805=CARTESIAN_POINT('',(0.,5.5,0.));
#806=CARTESIAN_POINT('',(0.,5.5,0.));
#807=CARTESIAN_POINT('',(0.,5.5,22.));
#808=CARTESIAN_POINT('',(0.,5.5,22.));
#809=CARTESIAN_POINT('',(0.,5.5,0.));
#810=CARTESIAN_POINT('Origin',(4.5,5.5,0.));
#811=CARTESIAN_POINT('',(4.5,10.,0.));
#812=CARTESIAN_POINT('Origin',(4.5,5.5,0.));
#813=CARTESIAN_POINT('',(4.5,10.,22.));
#814=CARTESIAN_POINT('Origin',(4.5,5.5,22.));
#815=CARTESIAN_POINT('',(4.5,10.,0.));
#816=CARTESIAN_POINT('Origin',(15.5,10.,0.));
#817=CARTESIAN_POINT('',(15.5,10.,0.));
#818=CARTESIAN_POINT('',(15.5,10.,0.));
#819=CARTESIAN_POINT('',(15.5,10.,22.));
#820=CARTESIAN_POINT('',(15.5,10.,22.));
#821=CARTESIAN_POINT('',(15.5,10.,0.));
#822=CARTESIAN_POINT('Origin',(15.5,5.5,0.));
#823=CARTESIAN_POINT('',(20.,5.5,0.));
#824=CARTESIAN_POINT('Origin',(15.5,5.5,0.));
#825=CARTESIAN_POINT('',(20.,5.5,22.));
#826=CARTESIAN_POINT('Origin',(15.5,5.5,22.));
#827=CARTESIAN_POINT('',(20.,5.5,0.));
#828=CARTESIAN_POINT('Origin',(20.,4.5,0.));
#829=CARTESIAN_POINT('',(20.,4.5,0.));
#830=CARTESIAN_POINT('',(20.,4.5,0.));
#831=CARTESIAN_POINT('',(20.,4.5,22.));
#832=CARTESIAN_POINT('',(20.,4.5,22.));
#833=CARTESIAN_POINT('',(20.,4.5,0.));
#834=CARTESIAN_POINT('Origin',(15.5,4.5,0.));
#835=CARTESIAN_POINT('Origin',(15.5,4.5,0.));
#836=CARTESIAN_POINT('Origin',(15.5,4.5,22.));
#837=CARTESIAN_POINT('Origin',(10.,5.,22.));
#838=CARTESIAN_POINT('Origin',(10.,5.,0.));
#839=CARTESIAN_POINT('Origin',(17.5,5.00814449122718,22.939564662238));
#840=CARTESIAN_POINT('',(17.1,4.9884118731423,22.7710509204914));
#841=CARTESIAN_POINT('Origin',(17.5,4.9884118731423,22.7710509204914));
#842=CARTESIAN_POINT('',(17.1,5.00814449122718,22.939564662238));
#843=CARTESIAN_POINT('',(17.1,5.00814449122718,22.939564662238));
#844=CARTESIAN_POINT('',(17.5,5.40542998816866,22.8930433346564));
#845=CARTESIAN_POINT('Origin',(17.5,5.00814449122718,22.939564662238));
#846=CARTESIAN_POINT('Origin',(17.5,5.00814449122718,22.939564662238));
#847=CARTESIAN_POINT('Origin',(17.5,6.1999998882413,22.8000011399388));
#848=CARTESIAN_POINT('',(17.5,6.199999558134,23.6));
#849=CARTESIAN_POINT('Origin',(17.5,6.1999998882413,22.8000011399388));
#850=CARTESIAN_POINT('',(17.1,6.199999558134,24.));
#851=CARTESIAN_POINT('Origin',(17.5,6.199999558134,24.));
#852=CARTESIAN_POINT('Origin',(17.5,6.199999558134,24.));
#853=CARTESIAN_POINT('Origin',(17.5,6.95,24.));
#854=CARTESIAN_POINT('',(17.1,6.95,24.));
#855=CARTESIAN_POINT('',(17.1,6.95,24.));
#856=CARTESIAN_POINT('',(17.9,6.95,24.0000003576279));
#857=CARTESIAN_POINT('Origin',(17.5,6.95,24.0000003576279));
#858=CARTESIAN_POINT('Origin',(17.5,6.95,24.0000003576279));
#859=CARTESIAN_POINT('Origin',(17.5,4.9884118731423,22.7710509204914));
#860=CARTESIAN_POINT('Origin',(17.5,10.,24.0000003576279));
#861=CARTESIAN_POINT('',(17.9,10.,24.0000003576279));
#862=CARTESIAN_POINT('',(17.9,10.,24.0000003576279));
#863=CARTESIAN_POINT('Origin',(17.5,10.,24.0000003576279));
#864=CARTESIAN_POINT('Origin',(17.5,10.,24.0000003576279));
#865=CARTESIAN_POINT('Origin',(2.5,5.00814449122718,22.939564662238));
#866=CARTESIAN_POINT('',(2.1,4.9884118731423,22.7710509204914));
#867=CARTESIAN_POINT('Origin',(2.5,4.9884118731423,22.7710509204914));
#868=CARTESIAN_POINT('',(2.1,5.00814449122718,22.939564662238));
#869=CARTESIAN_POINT('',(2.1,5.00814449122718,22.939564662238));
#870=CARTESIAN_POINT('',(2.5,5.40542998816866,22.8930433346564));
#871=CARTESIAN_POINT('Origin',(2.5,5.00814449122718,22.939564662238));
#872=CARTESIAN_POINT('Origin',(2.5,5.00814449122718,22.939564662238));
#873=CARTESIAN_POINT('Origin',(2.5,6.1999998882413,22.8000011399388));
#874=CARTESIAN_POINT('',(2.5,6.199999558134,23.6));
#875=CARTESIAN_POINT('Origin',(2.5,6.1999998882413,22.8000011399388));
#876=CARTESIAN_POINT('',(2.9,6.19999955813401,24.));
#877=CARTESIAN_POINT('Origin',(2.5,6.199999558134,24.));
#878=CARTESIAN_POINT('',(2.1,6.199999558134,24.));
#879=CARTESIAN_POINT('Origin',(2.5,6.199999558134,24.));
#880=CARTESIAN_POINT('Origin',(2.5,6.199999558134,24.));
#881=CARTESIAN_POINT('Origin',(2.5,4.9884118731423,22.7710509204914));
#882=CARTESIAN_POINT('Origin',(2.5,10.,24.));
#883=CARTESIAN_POINT('',(2.9,10.,24.));
#884=CARTESIAN_POINT('',(2.9,10.,24.));
#885=CARTESIAN_POINT('Origin',(2.5,10.,24.));
#886=CARTESIAN_POINT('Origin',(2.5,10.,24.));
#887=CARTESIAN_POINT('Origin',(5.00000007450581,5.00000007450581,0.1));
#888=CARTESIAN_POINT('',(0.970428082157371,5.00000007450581,0.1));
#889=CARTESIAN_POINT('Origin',(5.00000007450581,5.00000007450581,0.1));
#890=CARTESIAN_POINT('Origin',(5.00000007450581,5.00000007450581,1.));
#891=CARTESIAN_POINT('',(0.970428082157371,5.00000007450581,1.));
#892=CARTESIAN_POINT('',(0.970428082157371,5.00000007450581,1.));
#893=CARTESIAN_POINT('Origin',(5.00000007450581,5.00000007450581,1.));
#894=CARTESIAN_POINT('Origin',(5.00000007450581,5.00000007450581,1.));
#895=CARTESIAN_POINT('Origin',(15.0000002235174,5.00000007450581,0.1));
#896=CARTESIAN_POINT('',(10.8768945364607,5.00000007450581,0.1));
#897=CARTESIAN_POINT('Origin',(15.0000002235174,5.00000007450581,0.1));
#898=CARTESIAN_POINT('Origin',(15.0000002235174,5.00000007450581,1.));
#899=CARTESIAN_POINT('',(10.8768945364607,5.00000007450581,1.));
#900=CARTESIAN_POINT('',(10.8768945364607,5.00000007450581,1.));
#901=CARTESIAN_POINT('Origin',(15.0000002235174,5.00000007450581,1.));
#902=CARTESIAN_POINT('Origin',(15.0000002235174,5.00000007450581,1.));
#903=UNCERTAINTY_MEASURE_WITH_UNIT(LENGTH_MEASURE(0.01),#907,
'DISTANCE_ACCURACY_VALUE',
'Maximum model space distance between geometric entities at asserted c
onnectivities');
#904=UNCERTAINTY_MEASURE_WITH_UNIT(LENGTH_MEASURE(0.01),#907,
'DISTANCE_ACCURACY_VALUE',
'Maximum model space distance between geometric entities at asserted c
onnectivities');
#905=(
GEOMETRIC_REPRESENTATION_CONTEXT(3)
GLOBAL_UNCERTAINTY_ASSIGNED_CONTEXT((#903))
GLOBAL_UNIT_ASSIGNED_CONTEXT((#907,#909,#910))
REPRESENTATION_CONTEXT('','3D')
);
#906=(
GEOMETRIC_REPRESENTATION_CONTEXT(3)
GLOBAL_UNCERTAINTY_ASSIGNED_CONTEXT((#904))
GLOBAL_UNIT_ASSIGNED_CONTEXT((#907,#909,#910))
REPRESENTATION_CONTEXT('','3D')
);
#907=(
LENGTH_UNIT()
NAMED_UNIT(*)
SI_UNIT(.MILLI.,.METRE.)
);
#908=(
LENGTH_UNIT()
NAMED_UNIT(*)
SI_UNIT($,.METRE.)
);
#909=(
NAMED_UNIT(*)
PLANE_ANGLE_UNIT()
SI_UNIT($,.RADIAN.)
);
#910=(
NAMED_UNIT(*)
SI_UNIT($,.STERADIAN.)
SOLID_ANGLE_UNIT()
);
#911=SHAPE_DEFINITION_REPRESENTATION(#912,#913);
#912=PRODUCT_DEFINITION_SHAPE('',$,#915);
#913=SHAPE_REPRESENTATION('',(#514),#905);
#914=PRODUCT_DEFINITION_CONTEXT('part definition',#919,'design');
#915=PRODUCT_DEFINITION('SUPERCAP_5F','SUPERCAP_5F v4',#916,#914);
#916=PRODUCT_DEFINITION_FORMATION('',$,#921);
#917=PRODUCT_RELATED_PRODUCT_CATEGORY('SUPERCAP_5F v4','SUPERCAP_5F v4',
(#921));
#918=APPLICATION_PROTOCOL_DEFINITION('international standard',
'automotive_design',2009,#919);
#919=APPLICATION_CONTEXT(
'Core Data for Automotive Mechanical Design Process');
#920=PRODUCT_CONTEXT('part definition',#919,'mechanical');
#921=PRODUCT('SUPERCAP_5F','SUPERCAP_5F v4',$,(#920));
#922=PRESENTATION_STYLE_ASSIGNMENT((#925));
#923=PRESENTATION_STYLE_ASSIGNMENT((#926));
#924=PRESENTATION_STYLE_ASSIGNMENT((#927));
#925=SURFACE_STYLE_USAGE(.BOTH.,#928);
#926=SURFACE_STYLE_USAGE(.BOTH.,#929);
#927=SURFACE_STYLE_USAGE(.BOTH.,#930);
#928=SURFACE_SIDE_STYLE('',(#931));
#929=SURFACE_SIDE_STYLE('',(#932));
#930=SURFACE_SIDE_STYLE('',(#933));
#931=SURFACE_STYLE_FILL_AREA(#934);
#932=SURFACE_STYLE_FILL_AREA(#935);
#933=SURFACE_STYLE_FILL_AREA(#936);
#934=FILL_AREA_STYLE('Steel - Satin',(#937));
#935=FILL_AREA_STYLE('Plastic - Matte (Blue)',(#938));
#936=FILL_AREA_STYLE('Aluminum - Polished',(#939));
#937=FILL_AREA_STYLE_COLOUR('Steel - Satin',#940);
#938=FILL_AREA_STYLE_COLOUR('Plastic - Matte (Blue)',#941);
#939=FILL_AREA_STYLE_COLOUR('Aluminum - Polished',#942);
#940=COLOUR_RGB('Steel - Satin',0.627450980392157,0.627450980392157,0.627450980392157);
#941=COLOUR_RGB('Plastic - Matte (Blue)',0.188235294117647,0.231372549019608,
0.588235294117647);
#942=COLOUR_RGB('Aluminum - Polished',0.96078431372549,0.96078431372549,
0.964705882352941);
ENDSEC;
END-ISO-10303-21;
