ISO-10303-21;
HEADER;
/* Generated by software containing ST-Developer
 * from STEP Tools, Inc. (www.steptools.com) 
 */

FILE_DESCRIPTION(
/* description */ (''),
/* implementation_level */ '2;1');

FILE_NAME(
/* name */ 'CA-L01 v2.step',
/* time_stamp */ '2025-06-18T12:52:23+08:00',
/* author */ (''),
/* organization */ (''),
/* preprocessor_version */ 'ST-DEVELOPER v20.1',
/* originating_system */ 'Autodesk Translation Framework v14.4.0.0',
/* authorisation */ '');

FILE_SCHEMA (('AUTOMOTIVE_DESIGN { 1 0 10303 214 3 1 1 }'));
ENDSEC;

DATA;
#10=MECHANICAL_DESIGN_GEOMETRIC_PRESENTATION_REPRESENTATION('',(#13,#14,
#15,#16),#1032);
#11=SHAPE_REPRESENTATION_RELATIONSHIP('SRR','None',#1039,#12);
#12=ADVANCED_BREP_SHAPE_REPRESENTATION('',(#17,#18,#19,#20),#1031);
#13=STYLED_ITEM('',(#1049),#17);
#14=STYLED_ITEM('',(#1050),#18);
#15=STYLED_ITEM('',(#1050),#19);
#16=STYLED_ITEM('',(#1050),#20);
#17=MANIFOLD_SOLID_BREP('\X2\5B9E4F53\X0\1',#641);
#18=MANIFOLD_SOLID_BREP('\X2\5B9E4F53\X0\2',#642);
#19=MANIFOLD_SOLID_BREP('\X2\5B9E4F53\X0\3',#643);
#20=MANIFOLD_SOLID_BREP('\X2\5B9E4F53\X0\4',#644);
#21=FACE_OUTER_BOUND('',#57,.T.);
#22=FACE_OUTER_BOUND('',#58,.T.);
#23=FACE_OUTER_BOUND('',#59,.T.);
#24=FACE_OUTER_BOUND('',#60,.T.);
#25=FACE_OUTER_BOUND('',#61,.T.);
#26=FACE_OUTER_BOUND('',#62,.T.);
#27=FACE_OUTER_BOUND('',#63,.T.);
#28=FACE_OUTER_BOUND('',#64,.T.);
#29=FACE_OUTER_BOUND('',#65,.T.);
#30=FACE_OUTER_BOUND('',#66,.T.);
#31=FACE_OUTER_BOUND('',#67,.T.);
#32=FACE_OUTER_BOUND('',#68,.T.);
#33=FACE_OUTER_BOUND('',#69,.T.);
#34=FACE_OUTER_BOUND('',#70,.T.);
#35=FACE_OUTER_BOUND('',#71,.T.);
#36=FACE_OUTER_BOUND('',#72,.T.);
#37=FACE_OUTER_BOUND('',#73,.T.);
#38=FACE_OUTER_BOUND('',#74,.T.);
#39=FACE_OUTER_BOUND('',#75,.T.);
#40=FACE_OUTER_BOUND('',#76,.T.);
#41=FACE_OUTER_BOUND('',#77,.T.);
#42=FACE_OUTER_BOUND('',#78,.T.);
#43=FACE_OUTER_BOUND('',#79,.T.);
#44=FACE_OUTER_BOUND('',#80,.T.);
#45=FACE_OUTER_BOUND('',#81,.T.);
#46=FACE_OUTER_BOUND('',#82,.T.);
#47=FACE_OUTER_BOUND('',#83,.T.);
#48=FACE_OUTER_BOUND('',#84,.T.);
#49=FACE_OUTER_BOUND('',#85,.T.);
#50=FACE_OUTER_BOUND('',#86,.T.);
#51=FACE_OUTER_BOUND('',#87,.T.);
#52=FACE_OUTER_BOUND('',#88,.T.);
#53=FACE_OUTER_BOUND('',#89,.T.);
#54=FACE_OUTER_BOUND('',#90,.T.);
#55=FACE_OUTER_BOUND('',#91,.T.);
#56=FACE_OUTER_BOUND('',#92,.T.);
#57=EDGE_LOOP('',(#401,#402,#403,#404));
#58=EDGE_LOOP('',(#405,#406,#407,#408));
#59=EDGE_LOOP('',(#409,#410,#411,#412));
#60=EDGE_LOOP('',(#413,#414,#415,#416));
#61=EDGE_LOOP('',(#417,#418,#419,#420));
#62=EDGE_LOOP('',(#421,#422,#423,#424));
#63=EDGE_LOOP('',(#425,#426,#427,#428));
#64=EDGE_LOOP('',(#429,#430,#431,#432));
#65=EDGE_LOOP('',(#433,#434,#435,#436));
#66=EDGE_LOOP('',(#437,#438,#439,#440));
#67=EDGE_LOOP('',(#441,#442,#443,#444));
#68=EDGE_LOOP('',(#445,#446,#447,#448));
#69=EDGE_LOOP('',(#449,#450,#451,#452));
#70=EDGE_LOOP('',(#453,#454,#455,#456,#457,#458,#459,#460,#461,#462,#463,
#464,#465,#466,#467,#468));
#71=EDGE_LOOP('',(#469,#470,#471,#472,#473,#474,#475,#476,#477,#478,#479,
#480,#481,#482,#483,#484));
#72=EDGE_LOOP('',(#485,#486,#487,#488));
#73=EDGE_LOOP('',(#489,#490,#491,#492));
#74=EDGE_LOOP('',(#493,#494,#495,#496));
#75=EDGE_LOOP('',(#497,#498,#499,#500));
#76=EDGE_LOOP('',(#501,#502,#503,#504));
#77=EDGE_LOOP('',(#505,#506,#507,#508));
#78=EDGE_LOOP('',(#509,#510,#511,#512));
#79=EDGE_LOOP('',(#513,#514,#515,#516));
#80=EDGE_LOOP('',(#517,#518,#519,#520));
#81=EDGE_LOOP('',(#521,#522,#523,#524));
#82=EDGE_LOOP('',(#525,#526,#527,#528));
#83=EDGE_LOOP('',(#529,#530,#531,#532));
#84=EDGE_LOOP('',(#533,#534,#535,#536));
#85=EDGE_LOOP('',(#537,#538,#539,#540));
#86=EDGE_LOOP('',(#541,#542,#543,#544));
#87=EDGE_LOOP('',(#545,#546,#547,#548));
#88=EDGE_LOOP('',(#549,#550,#551,#552));
#89=EDGE_LOOP('',(#553,#554,#555,#556));
#90=EDGE_LOOP('',(#557,#558,#559,#560));
#91=EDGE_LOOP('',(#561,#562,#563,#564));
#92=EDGE_LOOP('',(#565,#566,#567,#568));
#93=LINE('',#856,#177);
#94=LINE('',#858,#178);
#95=LINE('',#860,#179);
#96=LINE('',#861,#180);
#97=LINE('',#865,#181);
#98=LINE('',#867,#182);
#99=LINE('',#869,#183);
#100=LINE('',#870,#184);
#101=LINE('',#872,#185);
#102=LINE('',#873,#186);
#103=LINE('',#877,#187);
#104=LINE('',#879,#188);
#105=LINE('',#881,#189);
#106=LINE('',#882,#190);
#107=LINE('',#886,#191);
#108=LINE('',#888,#192);
#109=LINE('',#890,#193);
#110=LINE('',#891,#194);
#111=LINE('',#893,#195);
#112=LINE('',#894,#196);
#113=LINE('',#898,#197);
#114=LINE('',#900,#198);
#115=LINE('',#902,#199);
#116=LINE('',#903,#200);
#117=LINE('',#907,#201);
#118=LINE('',#909,#202);
#119=LINE('',#911,#203);
#120=LINE('',#912,#204);
#121=LINE('',#914,#205);
#122=LINE('',#915,#206);
#123=LINE('',#918,#207);
#124=LINE('',#920,#208);
#125=LINE('',#921,#209);
#126=LINE('',#923,#210);
#127=LINE('',#924,#211);
#128=LINE('',#927,#212);
#129=LINE('',#929,#213);
#130=LINE('',#930,#214);
#131=LINE('',#932,#215);
#132=LINE('',#933,#216);
#133=LINE('',#936,#217);
#134=LINE('',#938,#218);
#135=LINE('',#939,#219);
#136=LINE('',#942,#220);
#137=LINE('',#944,#221);
#138=LINE('',#945,#222);
#139=LINE('',#947,#223);
#140=LINE('',#949,#224);
#141=LINE('',#954,#225);
#142=LINE('',#956,#226);
#143=LINE('',#958,#227);
#144=LINE('',#959,#228);
#145=LINE('',#962,#229);
#146=LINE('',#964,#230);
#147=LINE('',#965,#231);
#148=LINE('',#968,#232);
#149=LINE('',#970,#233);
#150=LINE('',#971,#234);
#151=LINE('',#973,#235);
#152=LINE('',#974,#236);
#153=LINE('',#980,#237);
#154=LINE('',#982,#238);
#155=LINE('',#984,#239);
#156=LINE('',#985,#240);
#157=LINE('',#988,#241);
#158=LINE('',#990,#242);
#159=LINE('',#991,#243);
#160=LINE('',#994,#244);
#161=LINE('',#996,#245);
#162=LINE('',#997,#246);
#163=LINE('',#999,#247);
#164=LINE('',#1000,#248);
#165=LINE('',#1006,#249);
#166=LINE('',#1008,#250);
#167=LINE('',#1010,#251);
#168=LINE('',#1011,#252);
#169=LINE('',#1014,#253);
#170=LINE('',#1016,#254);
#171=LINE('',#1017,#255);
#172=LINE('',#1020,#256);
#173=LINE('',#1022,#257);
#174=LINE('',#1023,#258);
#175=LINE('',#1025,#259);
#176=LINE('',#1026,#260);
#177=VECTOR('',#698,10.);
#178=VECTOR('',#699,10.);
#179=VECTOR('',#700,10.);
#180=VECTOR('',#701,10.);
#181=VECTOR('',#704,10.);
#182=VECTOR('',#705,10.);
#183=VECTOR('',#706,10.);
#184=VECTOR('',#707,10.);
#185=VECTOR('',#710,10.);
#186=VECTOR('',#711,10.);
#187=VECTOR('',#714,10.);
#188=VECTOR('',#715,10.);
#189=VECTOR('',#716,10.);
#190=VECTOR('',#717,10.);
#191=VECTOR('',#720,10.);
#192=VECTOR('',#721,10.);
#193=VECTOR('',#722,10.);
#194=VECTOR('',#723,10.);
#195=VECTOR('',#726,10.);
#196=VECTOR('',#727,10.);
#197=VECTOR('',#730,10.);
#198=VECTOR('',#731,10.);
#199=VECTOR('',#732,10.);
#200=VECTOR('',#733,10.);
#201=VECTOR('',#736,10.);
#202=VECTOR('',#737,10.);
#203=VECTOR('',#738,10.);
#204=VECTOR('',#739,10.);
#205=VECTOR('',#742,10.);
#206=VECTOR('',#743,10.);
#207=VECTOR('',#746,10.);
#208=VECTOR('',#747,10.);
#209=VECTOR('',#748,10.);
#210=VECTOR('',#751,10.);
#211=VECTOR('',#752,10.);
#212=VECTOR('',#755,10.);
#213=VECTOR('',#756,10.);
#214=VECTOR('',#757,10.);
#215=VECTOR('',#760,10.);
#216=VECTOR('',#761,10.);
#217=VECTOR('',#764,10.);
#218=VECTOR('',#765,10.);
#219=VECTOR('',#766,10.);
#220=VECTOR('',#769,10.);
#221=VECTOR('',#770,10.);
#222=VECTOR('',#771,10.);
#223=VECTOR('',#774,10.);
#224=VECTOR('',#777,10.);
#225=VECTOR('',#782,10.);
#226=VECTOR('',#783,10.);
#227=VECTOR('',#784,10.);
#228=VECTOR('',#785,10.);
#229=VECTOR('',#788,10.);
#230=VECTOR('',#789,10.);
#231=VECTOR('',#790,10.);
#232=VECTOR('',#793,10.);
#233=VECTOR('',#794,10.);
#234=VECTOR('',#795,10.);
#235=VECTOR('',#798,10.);
#236=VECTOR('',#799,10.);
#237=VECTOR('',#806,10.);
#238=VECTOR('',#807,10.);
#239=VECTOR('',#808,10.);
#240=VECTOR('',#809,10.);
#241=VECTOR('',#812,10.);
#242=VECTOR('',#813,10.);
#243=VECTOR('',#814,10.);
#244=VECTOR('',#817,10.);
#245=VECTOR('',#818,10.);
#246=VECTOR('',#819,10.);
#247=VECTOR('',#822,10.);
#248=VECTOR('',#823,10.);
#249=VECTOR('',#830,10.);
#250=VECTOR('',#831,10.);
#251=VECTOR('',#832,10.);
#252=VECTOR('',#833,10.);
#253=VECTOR('',#836,10.);
#254=VECTOR('',#837,10.);
#255=VECTOR('',#838,10.);
#256=VECTOR('',#841,10.);
#257=VECTOR('',#842,10.);
#258=VECTOR('',#843,10.);
#259=VECTOR('',#846,10.);
#260=VECTOR('',#847,10.);
#261=VERTEX_POINT('',#854);
#262=VERTEX_POINT('',#855);
#263=VERTEX_POINT('',#857);
#264=VERTEX_POINT('',#859);
#265=VERTEX_POINT('',#863);
#266=VERTEX_POINT('',#864);
#267=VERTEX_POINT('',#866);
#268=VERTEX_POINT('',#868);
#269=VERTEX_POINT('',#875);
#270=VERTEX_POINT('',#876);
#271=VERTEX_POINT('',#878);
#272=VERTEX_POINT('',#880);
#273=VERTEX_POINT('',#884);
#274=VERTEX_POINT('',#885);
#275=VERTEX_POINT('',#887);
#276=VERTEX_POINT('',#889);
#277=VERTEX_POINT('',#896);
#278=VERTEX_POINT('',#897);
#279=VERTEX_POINT('',#899);
#280=VERTEX_POINT('',#901);
#281=VERTEX_POINT('',#905);
#282=VERTEX_POINT('',#906);
#283=VERTEX_POINT('',#908);
#284=VERTEX_POINT('',#910);
#285=VERTEX_POINT('',#917);
#286=VERTEX_POINT('',#919);
#287=VERTEX_POINT('',#926);
#288=VERTEX_POINT('',#928);
#289=VERTEX_POINT('',#935);
#290=VERTEX_POINT('',#937);
#291=VERTEX_POINT('',#941);
#292=VERTEX_POINT('',#943);
#293=VERTEX_POINT('',#952);
#294=VERTEX_POINT('',#953);
#295=VERTEX_POINT('',#955);
#296=VERTEX_POINT('',#957);
#297=VERTEX_POINT('',#961);
#298=VERTEX_POINT('',#963);
#299=VERTEX_POINT('',#967);
#300=VERTEX_POINT('',#969);
#301=VERTEX_POINT('',#978);
#302=VERTEX_POINT('',#979);
#303=VERTEX_POINT('',#981);
#304=VERTEX_POINT('',#983);
#305=VERTEX_POINT('',#987);
#306=VERTEX_POINT('',#989);
#307=VERTEX_POINT('',#993);
#308=VERTEX_POINT('',#995);
#309=VERTEX_POINT('',#1004);
#310=VERTEX_POINT('',#1005);
#311=VERTEX_POINT('',#1007);
#312=VERTEX_POINT('',#1009);
#313=VERTEX_POINT('',#1013);
#314=VERTEX_POINT('',#1015);
#315=VERTEX_POINT('',#1019);
#316=VERTEX_POINT('',#1021);
#317=EDGE_CURVE('',#261,#262,#93,.T.);
#318=EDGE_CURVE('',#263,#261,#94,.T.);
#319=EDGE_CURVE('',#263,#264,#95,.T.);
#320=EDGE_CURVE('',#262,#264,#96,.T.);
#321=EDGE_CURVE('',#265,#266,#97,.T.);
#322=EDGE_CURVE('',#267,#265,#98,.T.);
#323=EDGE_CURVE('',#267,#268,#99,.T.);
#324=EDGE_CURVE('',#266,#268,#100,.T.);
#325=EDGE_CURVE('',#264,#267,#101,.T.);
#326=EDGE_CURVE('',#268,#263,#102,.T.);
#327=EDGE_CURVE('',#269,#270,#103,.T.);
#328=EDGE_CURVE('',#271,#269,#104,.T.);
#329=EDGE_CURVE('',#271,#272,#105,.T.);
#330=EDGE_CURVE('',#270,#272,#106,.T.);
#331=EDGE_CURVE('',#273,#274,#107,.T.);
#332=EDGE_CURVE('',#275,#273,#108,.T.);
#333=EDGE_CURVE('',#275,#276,#109,.T.);
#334=EDGE_CURVE('',#274,#276,#110,.T.);
#335=EDGE_CURVE('',#272,#275,#111,.T.);
#336=EDGE_CURVE('',#276,#271,#112,.T.);
#337=EDGE_CURVE('',#277,#278,#113,.T.);
#338=EDGE_CURVE('',#279,#277,#114,.T.);
#339=EDGE_CURVE('',#279,#280,#115,.T.);
#340=EDGE_CURVE('',#278,#280,#116,.T.);
#341=EDGE_CURVE('',#281,#282,#117,.T.);
#342=EDGE_CURVE('',#283,#281,#118,.T.);
#343=EDGE_CURVE('',#283,#284,#119,.T.);
#344=EDGE_CURVE('',#282,#284,#120,.T.);
#345=EDGE_CURVE('',#280,#283,#121,.T.);
#346=EDGE_CURVE('',#284,#279,#122,.T.);
#347=EDGE_CURVE('',#278,#285,#123,.T.);
#348=EDGE_CURVE('',#285,#286,#124,.T.);
#349=EDGE_CURVE('',#286,#277,#125,.T.);
#350=EDGE_CURVE('',#270,#281,#126,.T.);
#351=EDGE_CURVE('',#282,#269,#127,.T.);
#352=EDGE_CURVE('',#266,#287,#128,.T.);
#353=EDGE_CURVE('',#287,#288,#129,.T.);
#354=EDGE_CURVE('',#288,#265,#130,.T.);
#355=EDGE_CURVE('',#262,#273,#131,.T.);
#356=EDGE_CURVE('',#274,#261,#132,.T.);
#357=EDGE_CURVE('',#289,#288,#133,.T.);
#358=EDGE_CURVE('',#289,#290,#134,.T.);
#359=EDGE_CURVE('',#290,#285,#135,.T.);
#360=EDGE_CURVE('',#291,#286,#136,.T.);
#361=EDGE_CURVE('',#291,#292,#137,.T.);
#362=EDGE_CURVE('',#292,#287,#138,.T.);
#363=EDGE_CURVE('',#290,#291,#139,.T.);
#364=EDGE_CURVE('',#292,#289,#140,.T.);
#365=EDGE_CURVE('',#293,#294,#141,.T.);
#366=EDGE_CURVE('',#293,#295,#142,.T.);
#367=EDGE_CURVE('',#296,#295,#143,.T.);
#368=EDGE_CURVE('',#294,#296,#144,.T.);
#369=EDGE_CURVE('',#294,#297,#145,.T.);
#370=EDGE_CURVE('',#298,#296,#146,.T.);
#371=EDGE_CURVE('',#297,#298,#147,.T.);
#372=EDGE_CURVE('',#297,#299,#148,.T.);
#373=EDGE_CURVE('',#300,#298,#149,.T.);
#374=EDGE_CURVE('',#299,#300,#150,.T.);
#375=EDGE_CURVE('',#299,#293,#151,.T.);
#376=EDGE_CURVE('',#295,#300,#152,.T.);
#377=EDGE_CURVE('',#301,#302,#153,.T.);
#378=EDGE_CURVE('',#301,#303,#154,.T.);
#379=EDGE_CURVE('',#304,#303,#155,.T.);
#380=EDGE_CURVE('',#302,#304,#156,.T.);
#381=EDGE_CURVE('',#302,#305,#157,.T.);
#382=EDGE_CURVE('',#306,#304,#158,.T.);
#383=EDGE_CURVE('',#305,#306,#159,.T.);
#384=EDGE_CURVE('',#305,#307,#160,.T.);
#385=EDGE_CURVE('',#308,#306,#161,.T.);
#386=EDGE_CURVE('',#307,#308,#162,.T.);
#387=EDGE_CURVE('',#307,#301,#163,.T.);
#388=EDGE_CURVE('',#303,#308,#164,.T.);
#389=EDGE_CURVE('',#309,#310,#165,.T.);
#390=EDGE_CURVE('',#309,#311,#166,.T.);
#391=EDGE_CURVE('',#312,#311,#167,.T.);
#392=EDGE_CURVE('',#310,#312,#168,.T.);
#393=EDGE_CURVE('',#310,#313,#169,.T.);
#394=EDGE_CURVE('',#314,#312,#170,.T.);
#395=EDGE_CURVE('',#313,#314,#171,.T.);
#396=EDGE_CURVE('',#313,#315,#172,.T.);
#397=EDGE_CURVE('',#316,#314,#173,.T.);
#398=EDGE_CURVE('',#315,#316,#174,.T.);
#399=EDGE_CURVE('',#315,#309,#175,.T.);
#400=EDGE_CURVE('',#311,#316,#176,.T.);
#401=ORIENTED_EDGE('',*,*,#317,.F.);
#402=ORIENTED_EDGE('',*,*,#318,.F.);
#403=ORIENTED_EDGE('',*,*,#319,.T.);
#404=ORIENTED_EDGE('',*,*,#320,.F.);
#405=ORIENTED_EDGE('',*,*,#321,.F.);
#406=ORIENTED_EDGE('',*,*,#322,.F.);
#407=ORIENTED_EDGE('',*,*,#323,.T.);
#408=ORIENTED_EDGE('',*,*,#324,.F.);
#409=ORIENTED_EDGE('',*,*,#325,.F.);
#410=ORIENTED_EDGE('',*,*,#319,.F.);
#411=ORIENTED_EDGE('',*,*,#326,.F.);
#412=ORIENTED_EDGE('',*,*,#323,.F.);
#413=ORIENTED_EDGE('',*,*,#327,.F.);
#414=ORIENTED_EDGE('',*,*,#328,.F.);
#415=ORIENTED_EDGE('',*,*,#329,.T.);
#416=ORIENTED_EDGE('',*,*,#330,.F.);
#417=ORIENTED_EDGE('',*,*,#331,.F.);
#418=ORIENTED_EDGE('',*,*,#332,.F.);
#419=ORIENTED_EDGE('',*,*,#333,.T.);
#420=ORIENTED_EDGE('',*,*,#334,.F.);
#421=ORIENTED_EDGE('',*,*,#335,.F.);
#422=ORIENTED_EDGE('',*,*,#329,.F.);
#423=ORIENTED_EDGE('',*,*,#336,.F.);
#424=ORIENTED_EDGE('',*,*,#333,.F.);
#425=ORIENTED_EDGE('',*,*,#337,.F.);
#426=ORIENTED_EDGE('',*,*,#338,.F.);
#427=ORIENTED_EDGE('',*,*,#339,.T.);
#428=ORIENTED_EDGE('',*,*,#340,.F.);
#429=ORIENTED_EDGE('',*,*,#341,.F.);
#430=ORIENTED_EDGE('',*,*,#342,.F.);
#431=ORIENTED_EDGE('',*,*,#343,.T.);
#432=ORIENTED_EDGE('',*,*,#344,.F.);
#433=ORIENTED_EDGE('',*,*,#345,.F.);
#434=ORIENTED_EDGE('',*,*,#339,.F.);
#435=ORIENTED_EDGE('',*,*,#346,.F.);
#436=ORIENTED_EDGE('',*,*,#343,.F.);
#437=ORIENTED_EDGE('',*,*,#337,.T.);
#438=ORIENTED_EDGE('',*,*,#347,.T.);
#439=ORIENTED_EDGE('',*,*,#348,.T.);
#440=ORIENTED_EDGE('',*,*,#349,.T.);
#441=ORIENTED_EDGE('',*,*,#327,.T.);
#442=ORIENTED_EDGE('',*,*,#350,.T.);
#443=ORIENTED_EDGE('',*,*,#341,.T.);
#444=ORIENTED_EDGE('',*,*,#351,.T.);
#445=ORIENTED_EDGE('',*,*,#321,.T.);
#446=ORIENTED_EDGE('',*,*,#352,.T.);
#447=ORIENTED_EDGE('',*,*,#353,.T.);
#448=ORIENTED_EDGE('',*,*,#354,.T.);
#449=ORIENTED_EDGE('',*,*,#317,.T.);
#450=ORIENTED_EDGE('',*,*,#355,.T.);
#451=ORIENTED_EDGE('',*,*,#331,.T.);
#452=ORIENTED_EDGE('',*,*,#356,.T.);
#453=ORIENTED_EDGE('',*,*,#320,.T.);
#454=ORIENTED_EDGE('',*,*,#325,.T.);
#455=ORIENTED_EDGE('',*,*,#322,.T.);
#456=ORIENTED_EDGE('',*,*,#354,.F.);
#457=ORIENTED_EDGE('',*,*,#357,.F.);
#458=ORIENTED_EDGE('',*,*,#358,.T.);
#459=ORIENTED_EDGE('',*,*,#359,.T.);
#460=ORIENTED_EDGE('',*,*,#347,.F.);
#461=ORIENTED_EDGE('',*,*,#340,.T.);
#462=ORIENTED_EDGE('',*,*,#345,.T.);
#463=ORIENTED_EDGE('',*,*,#342,.T.);
#464=ORIENTED_EDGE('',*,*,#350,.F.);
#465=ORIENTED_EDGE('',*,*,#330,.T.);
#466=ORIENTED_EDGE('',*,*,#335,.T.);
#467=ORIENTED_EDGE('',*,*,#332,.T.);
#468=ORIENTED_EDGE('',*,*,#355,.F.);
#469=ORIENTED_EDGE('',*,*,#318,.T.);
#470=ORIENTED_EDGE('',*,*,#356,.F.);
#471=ORIENTED_EDGE('',*,*,#334,.T.);
#472=ORIENTED_EDGE('',*,*,#336,.T.);
#473=ORIENTED_EDGE('',*,*,#328,.T.);
#474=ORIENTED_EDGE('',*,*,#351,.F.);
#475=ORIENTED_EDGE('',*,*,#344,.T.);
#476=ORIENTED_EDGE('',*,*,#346,.T.);
#477=ORIENTED_EDGE('',*,*,#338,.T.);
#478=ORIENTED_EDGE('',*,*,#349,.F.);
#479=ORIENTED_EDGE('',*,*,#360,.F.);
#480=ORIENTED_EDGE('',*,*,#361,.T.);
#481=ORIENTED_EDGE('',*,*,#362,.T.);
#482=ORIENTED_EDGE('',*,*,#352,.F.);
#483=ORIENTED_EDGE('',*,*,#324,.T.);
#484=ORIENTED_EDGE('',*,*,#326,.T.);
#485=ORIENTED_EDGE('',*,*,#363,.T.);
#486=ORIENTED_EDGE('',*,*,#360,.T.);
#487=ORIENTED_EDGE('',*,*,#348,.F.);
#488=ORIENTED_EDGE('',*,*,#359,.F.);
#489=ORIENTED_EDGE('',*,*,#364,.T.);
#490=ORIENTED_EDGE('',*,*,#357,.T.);
#491=ORIENTED_EDGE('',*,*,#353,.F.);
#492=ORIENTED_EDGE('',*,*,#362,.F.);
#493=ORIENTED_EDGE('',*,*,#364,.F.);
#494=ORIENTED_EDGE('',*,*,#361,.F.);
#495=ORIENTED_EDGE('',*,*,#363,.F.);
#496=ORIENTED_EDGE('',*,*,#358,.F.);
#497=ORIENTED_EDGE('',*,*,#365,.F.);
#498=ORIENTED_EDGE('',*,*,#366,.T.);
#499=ORIENTED_EDGE('',*,*,#367,.F.);
#500=ORIENTED_EDGE('',*,*,#368,.F.);
#501=ORIENTED_EDGE('',*,*,#369,.F.);
#502=ORIENTED_EDGE('',*,*,#368,.T.);
#503=ORIENTED_EDGE('',*,*,#370,.F.);
#504=ORIENTED_EDGE('',*,*,#371,.F.);
#505=ORIENTED_EDGE('',*,*,#372,.F.);
#506=ORIENTED_EDGE('',*,*,#371,.T.);
#507=ORIENTED_EDGE('',*,*,#373,.F.);
#508=ORIENTED_EDGE('',*,*,#374,.F.);
#509=ORIENTED_EDGE('',*,*,#375,.F.);
#510=ORIENTED_EDGE('',*,*,#374,.T.);
#511=ORIENTED_EDGE('',*,*,#376,.F.);
#512=ORIENTED_EDGE('',*,*,#366,.F.);
#513=ORIENTED_EDGE('',*,*,#376,.T.);
#514=ORIENTED_EDGE('',*,*,#373,.T.);
#515=ORIENTED_EDGE('',*,*,#370,.T.);
#516=ORIENTED_EDGE('',*,*,#367,.T.);
#517=ORIENTED_EDGE('',*,*,#375,.T.);
#518=ORIENTED_EDGE('',*,*,#365,.T.);
#519=ORIENTED_EDGE('',*,*,#369,.T.);
#520=ORIENTED_EDGE('',*,*,#372,.T.);
#521=ORIENTED_EDGE('',*,*,#377,.F.);
#522=ORIENTED_EDGE('',*,*,#378,.T.);
#523=ORIENTED_EDGE('',*,*,#379,.F.);
#524=ORIENTED_EDGE('',*,*,#380,.F.);
#525=ORIENTED_EDGE('',*,*,#381,.F.);
#526=ORIENTED_EDGE('',*,*,#380,.T.);
#527=ORIENTED_EDGE('',*,*,#382,.F.);
#528=ORIENTED_EDGE('',*,*,#383,.F.);
#529=ORIENTED_EDGE('',*,*,#384,.F.);
#530=ORIENTED_EDGE('',*,*,#383,.T.);
#531=ORIENTED_EDGE('',*,*,#385,.F.);
#532=ORIENTED_EDGE('',*,*,#386,.F.);
#533=ORIENTED_EDGE('',*,*,#387,.F.);
#534=ORIENTED_EDGE('',*,*,#386,.T.);
#535=ORIENTED_EDGE('',*,*,#388,.F.);
#536=ORIENTED_EDGE('',*,*,#378,.F.);
#537=ORIENTED_EDGE('',*,*,#388,.T.);
#538=ORIENTED_EDGE('',*,*,#385,.T.);
#539=ORIENTED_EDGE('',*,*,#382,.T.);
#540=ORIENTED_EDGE('',*,*,#379,.T.);
#541=ORIENTED_EDGE('',*,*,#387,.T.);
#542=ORIENTED_EDGE('',*,*,#377,.T.);
#543=ORIENTED_EDGE('',*,*,#381,.T.);
#544=ORIENTED_EDGE('',*,*,#384,.T.);
#545=ORIENTED_EDGE('',*,*,#389,.F.);
#546=ORIENTED_EDGE('',*,*,#390,.T.);
#547=ORIENTED_EDGE('',*,*,#391,.F.);
#548=ORIENTED_EDGE('',*,*,#392,.F.);
#549=ORIENTED_EDGE('',*,*,#393,.F.);
#550=ORIENTED_EDGE('',*,*,#392,.T.);
#551=ORIENTED_EDGE('',*,*,#394,.F.);
#552=ORIENTED_EDGE('',*,*,#395,.F.);
#553=ORIENTED_EDGE('',*,*,#396,.F.);
#554=ORIENTED_EDGE('',*,*,#395,.T.);
#555=ORIENTED_EDGE('',*,*,#397,.F.);
#556=ORIENTED_EDGE('',*,*,#398,.F.);
#557=ORIENTED_EDGE('',*,*,#399,.F.);
#558=ORIENTED_EDGE('',*,*,#398,.T.);
#559=ORIENTED_EDGE('',*,*,#400,.F.);
#560=ORIENTED_EDGE('',*,*,#390,.F.);
#561=ORIENTED_EDGE('',*,*,#400,.T.);
#562=ORIENTED_EDGE('',*,*,#397,.T.);
#563=ORIENTED_EDGE('',*,*,#394,.T.);
#564=ORIENTED_EDGE('',*,*,#391,.T.);
#565=ORIENTED_EDGE('',*,*,#399,.T.);
#566=ORIENTED_EDGE('',*,*,#389,.T.);
#567=ORIENTED_EDGE('',*,*,#393,.T.);
#568=ORIENTED_EDGE('',*,*,#396,.T.);
#569=PLANE('',#658);
#570=PLANE('',#659);
#571=PLANE('',#660);
#572=PLANE('',#661);
#573=PLANE('',#662);
#574=PLANE('',#663);
#575=PLANE('',#664);
#576=PLANE('',#665);
#577=PLANE('',#666);
#578=PLANE('',#667);
#579=PLANE('',#668);
#580=PLANE('',#669);
#581=PLANE('',#670);
#582=PLANE('',#671);
#583=PLANE('',#672);
#584=PLANE('',#673);
#585=PLANE('',#674);
#586=PLANE('',#675);
#587=PLANE('',#676);
#588=PLANE('',#677);
#589=PLANE('',#678);
#590=PLANE('',#679);
#591=PLANE('',#680);
#592=PLANE('',#681);
#593=PLANE('',#682);
#594=PLANE('',#683);
#595=PLANE('',#684);
#596=PLANE('',#685);
#597=PLANE('',#686);
#598=PLANE('',#687);
#599=PLANE('',#688);
#600=PLANE('',#689);
#601=PLANE('',#690);
#602=PLANE('',#691);
#603=PLANE('',#692);
#604=PLANE('',#693);
#605=ADVANCED_FACE('',(#21),#569,.F.);
#606=ADVANCED_FACE('',(#22),#570,.F.);
#607=ADVANCED_FACE('',(#23),#571,.F.);
#608=ADVANCED_FACE('',(#24),#572,.F.);
#609=ADVANCED_FACE('',(#25),#573,.F.);
#610=ADVANCED_FACE('',(#26),#574,.F.);
#611=ADVANCED_FACE('',(#27),#575,.F.);
#612=ADVANCED_FACE('',(#28),#576,.F.);
#613=ADVANCED_FACE('',(#29),#577,.F.);
#614=ADVANCED_FACE('',(#30),#578,.T.);
#615=ADVANCED_FACE('',(#31),#579,.T.);
#616=ADVANCED_FACE('',(#32),#580,.T.);
#617=ADVANCED_FACE('',(#33),#581,.T.);
#618=ADVANCED_FACE('',(#34),#582,.T.);
#619=ADVANCED_FACE('',(#35),#583,.T.);
#620=ADVANCED_FACE('',(#36),#584,.T.);
#621=ADVANCED_FACE('',(#37),#585,.T.);
#622=ADVANCED_FACE('',(#38),#586,.F.);
#623=ADVANCED_FACE('',(#39),#587,.T.);
#624=ADVANCED_FACE('',(#40),#588,.T.);
#625=ADVANCED_FACE('',(#41),#589,.T.);
#626=ADVANCED_FACE('',(#42),#590,.T.);
#627=ADVANCED_FACE('',(#43),#591,.T.);
#628=ADVANCED_FACE('',(#44),#592,.T.);
#629=ADVANCED_FACE('',(#45),#593,.T.);
#630=ADVANCED_FACE('',(#46),#594,.T.);
#631=ADVANCED_FACE('',(#47),#595,.T.);
#632=ADVANCED_FACE('',(#48),#596,.T.);
#633=ADVANCED_FACE('',(#49),#597,.T.);
#634=ADVANCED_FACE('',(#50),#598,.T.);
#635=ADVANCED_FACE('',(#51),#599,.T.);
#636=ADVANCED_FACE('',(#52),#600,.T.);
#637=ADVANCED_FACE('',(#53),#601,.T.);
#638=ADVANCED_FACE('',(#54),#602,.T.);
#639=ADVANCED_FACE('',(#55),#603,.T.);
#640=ADVANCED_FACE('',(#56),#604,.T.);
#641=CLOSED_SHELL('',(#605,#606,#607,#608,#609,#610,#611,#612,#613,#614,
#615,#616,#617,#618,#619,#620,#621,#622));
#642=CLOSED_SHELL('',(#623,#624,#625,#626,#627,#628));
#643=CLOSED_SHELL('',(#629,#630,#631,#632,#633,#634));
#644=CLOSED_SHELL('',(#635,#636,#637,#638,#639,#640));
#645=DERIVED_UNIT_ELEMENT(#647,1.);
#646=DERIVED_UNIT_ELEMENT(#1034,-3.);
#647=(
MASS_UNIT()
NAMED_UNIT(*)
SI_UNIT(.KILO.,.GRAM.)
);
#648=DERIVED_UNIT((#645,#646));
#649=MEASURE_REPRESENTATION_ITEM('density measure',
POSITIVE_RATIO_MEASURE(7850.),#648);
#650=PROPERTY_DEFINITION_REPRESENTATION(#655,#652);
#651=PROPERTY_DEFINITION_REPRESENTATION(#656,#653);
#652=REPRESENTATION('material name',(#654),#1031);
#653=REPRESENTATION('density',(#649),#1031);
#654=DESCRIPTIVE_REPRESENTATION_ITEM('\X2\94A2\X0\','\X2\94A2\X0\');
#655=PROPERTY_DEFINITION('material property','material name',#1041);
#656=PROPERTY_DEFINITION('material property','density of part',#1041);
#657=AXIS2_PLACEMENT_3D('',#852,#694,#695);
#658=AXIS2_PLACEMENT_3D('',#853,#696,#697);
#659=AXIS2_PLACEMENT_3D('',#862,#702,#703);
#660=AXIS2_PLACEMENT_3D('',#871,#708,#709);
#661=AXIS2_PLACEMENT_3D('',#874,#712,#713);
#662=AXIS2_PLACEMENT_3D('',#883,#718,#719);
#663=AXIS2_PLACEMENT_3D('',#892,#724,#725);
#664=AXIS2_PLACEMENT_3D('',#895,#728,#729);
#665=AXIS2_PLACEMENT_3D('',#904,#734,#735);
#666=AXIS2_PLACEMENT_3D('',#913,#740,#741);
#667=AXIS2_PLACEMENT_3D('',#916,#744,#745);
#668=AXIS2_PLACEMENT_3D('',#922,#749,#750);
#669=AXIS2_PLACEMENT_3D('',#925,#753,#754);
#670=AXIS2_PLACEMENT_3D('',#931,#758,#759);
#671=AXIS2_PLACEMENT_3D('',#934,#762,#763);
#672=AXIS2_PLACEMENT_3D('',#940,#767,#768);
#673=AXIS2_PLACEMENT_3D('',#946,#772,#773);
#674=AXIS2_PLACEMENT_3D('',#948,#775,#776);
#675=AXIS2_PLACEMENT_3D('',#950,#778,#779);
#676=AXIS2_PLACEMENT_3D('',#951,#780,#781);
#677=AXIS2_PLACEMENT_3D('',#960,#786,#787);
#678=AXIS2_PLACEMENT_3D('',#966,#791,#792);
#679=AXIS2_PLACEMENT_3D('',#972,#796,#797);
#680=AXIS2_PLACEMENT_3D('',#975,#800,#801);
#681=AXIS2_PLACEMENT_3D('',#976,#802,#803);
#682=AXIS2_PLACEMENT_3D('',#977,#804,#805);
#683=AXIS2_PLACEMENT_3D('',#986,#810,#811);
#684=AXIS2_PLACEMENT_3D('',#992,#815,#816);
#685=AXIS2_PLACEMENT_3D('',#998,#820,#821);
#686=AXIS2_PLACEMENT_3D('',#1001,#824,#825);
#687=AXIS2_PLACEMENT_3D('',#1002,#826,#827);
#688=AXIS2_PLACEMENT_3D('',#1003,#828,#829);
#689=AXIS2_PLACEMENT_3D('',#1012,#834,#835);
#690=AXIS2_PLACEMENT_3D('',#1018,#839,#840);
#691=AXIS2_PLACEMENT_3D('',#1024,#844,#845);
#692=AXIS2_PLACEMENT_3D('',#1027,#848,#849);
#693=AXIS2_PLACEMENT_3D('',#1028,#850,#851);
#694=DIRECTION('axis',(0.,0.,1.));
#695=DIRECTION('refdir',(1.,0.,0.));
#696=DIRECTION('center_axis',(1.,0.,0.));
#697=DIRECTION('ref_axis',(0.,-1.,0.));
#698=DIRECTION('',(0.,-1.,0.));
#699=DIRECTION('',(0.,0.,1.));
#700=DIRECTION('',(0.,-1.,0.));
#701=DIRECTION('',(0.,0.,-1.));
#702=DIRECTION('center_axis',(-1.,0.,0.));
#703=DIRECTION('ref_axis',(0.,1.,0.));
#704=DIRECTION('',(0.,1.,0.));
#705=DIRECTION('',(0.,0.,1.));
#706=DIRECTION('',(0.,1.,0.));
#707=DIRECTION('',(0.,0.,-1.));
#708=DIRECTION('center_axis',(0.,0.,-1.));
#709=DIRECTION('ref_axis',(-1.,0.,0.));
#710=DIRECTION('',(-1.,0.,0.));
#711=DIRECTION('',(1.,0.,0.));
#712=DIRECTION('center_axis',(1.,0.,0.));
#713=DIRECTION('ref_axis',(0.,-1.,0.));
#714=DIRECTION('',(0.,-1.,0.));
#715=DIRECTION('',(0.,0.,1.));
#716=DIRECTION('',(0.,-1.,0.));
#717=DIRECTION('',(0.,0.,-1.));
#718=DIRECTION('center_axis',(-1.,0.,0.));
#719=DIRECTION('ref_axis',(0.,1.,0.));
#720=DIRECTION('',(0.,1.,0.));
#721=DIRECTION('',(0.,0.,1.));
#722=DIRECTION('',(0.,1.,0.));
#723=DIRECTION('',(0.,0.,-1.));
#724=DIRECTION('center_axis',(0.,0.,-1.));
#725=DIRECTION('ref_axis',(-1.,0.,0.));
#726=DIRECTION('',(-1.,0.,0.));
#727=DIRECTION('',(1.,0.,0.));
#728=DIRECTION('center_axis',(1.,0.,0.));
#729=DIRECTION('ref_axis',(0.,-1.,0.));
#730=DIRECTION('',(0.,-1.,0.));
#731=DIRECTION('',(0.,0.,1.));
#732=DIRECTION('',(0.,-1.,0.));
#733=DIRECTION('',(0.,0.,-1.));
#734=DIRECTION('center_axis',(-1.,0.,0.));
#735=DIRECTION('ref_axis',(0.,1.,0.));
#736=DIRECTION('',(0.,1.,0.));
#737=DIRECTION('',(0.,0.,1.));
#738=DIRECTION('',(0.,1.,0.));
#739=DIRECTION('',(0.,0.,-1.));
#740=DIRECTION('center_axis',(0.,0.,-1.));
#741=DIRECTION('ref_axis',(-1.,0.,0.));
#742=DIRECTION('',(-1.,0.,0.));
#743=DIRECTION('',(1.,0.,0.));
#744=DIRECTION('center_axis',(0.,0.,1.));
#745=DIRECTION('ref_axis',(1.,0.,0.));
#746=DIRECTION('',(1.,0.,0.));
#747=DIRECTION('',(0.,1.,0.));
#748=DIRECTION('',(-1.,0.,0.));
#749=DIRECTION('center_axis',(0.,0.,1.));
#750=DIRECTION('ref_axis',(1.,0.,0.));
#751=DIRECTION('',(1.,0.,0.));
#752=DIRECTION('',(-1.,0.,0.));
#753=DIRECTION('center_axis',(0.,0.,1.));
#754=DIRECTION('ref_axis',(1.,0.,0.));
#755=DIRECTION('',(-1.,0.,0.));
#756=DIRECTION('',(0.,-1.,0.));
#757=DIRECTION('',(1.,0.,0.));
#758=DIRECTION('center_axis',(0.,0.,1.));
#759=DIRECTION('ref_axis',(1.,0.,0.));
#760=DIRECTION('',(1.,0.,0.));
#761=DIRECTION('',(-1.,0.,0.));
#762=DIRECTION('center_axis',(0.,-1.,0.));
#763=DIRECTION('ref_axis',(1.,0.,0.));
#764=DIRECTION('',(0.,0.,1.));
#765=DIRECTION('',(1.,0.,0.));
#766=DIRECTION('',(0.,0.,1.));
#767=DIRECTION('center_axis',(0.,1.,0.));
#768=DIRECTION('ref_axis',(-1.,0.,0.));
#769=DIRECTION('',(0.,0.,1.));
#770=DIRECTION('',(-1.,0.,0.));
#771=DIRECTION('',(0.,0.,1.));
#772=DIRECTION('center_axis',(1.,0.,0.));
#773=DIRECTION('ref_axis',(0.,1.,0.));
#774=DIRECTION('',(0.,1.,0.));
#775=DIRECTION('center_axis',(-1.,0.,0.));
#776=DIRECTION('ref_axis',(0.,-1.,0.));
#777=DIRECTION('',(0.,-1.,0.));
#778=DIRECTION('center_axis',(0.,0.,1.));
#779=DIRECTION('ref_axis',(1.,0.,0.));
#780=DIRECTION('center_axis',(-1.,0.,0.));
#781=DIRECTION('ref_axis',(0.,-1.,0.));
#782=DIRECTION('',(0.,1.,0.));
#783=DIRECTION('',(0.,0.,1.));
#784=DIRECTION('',(0.,-1.,0.));
#785=DIRECTION('',(0.,0.,1.));
#786=DIRECTION('center_axis',(0.,1.,0.));
#787=DIRECTION('ref_axis',(-1.,0.,0.));
#788=DIRECTION('',(1.,0.,0.));
#789=DIRECTION('',(-1.,0.,0.));
#790=DIRECTION('',(0.,0.,1.));
#791=DIRECTION('center_axis',(1.,0.,0.));
#792=DIRECTION('ref_axis',(0.,1.,0.));
#793=DIRECTION('',(0.,-1.,0.));
#794=DIRECTION('',(0.,1.,0.));
#795=DIRECTION('',(0.,0.,1.));
#796=DIRECTION('center_axis',(0.,-1.,0.));
#797=DIRECTION('ref_axis',(1.,0.,0.));
#798=DIRECTION('',(-1.,0.,0.));
#799=DIRECTION('',(1.,0.,0.));
#800=DIRECTION('center_axis',(0.,0.,1.));
#801=DIRECTION('ref_axis',(1.,0.,0.));
#802=DIRECTION('center_axis',(0.,0.,-1.));
#803=DIRECTION('ref_axis',(-1.,0.,0.));
#804=DIRECTION('center_axis',(-1.,0.,0.));
#805=DIRECTION('ref_axis',(0.,-1.,0.));
#806=DIRECTION('',(0.,1.,0.));
#807=DIRECTION('',(0.,0.,1.));
#808=DIRECTION('',(0.,-1.,0.));
#809=DIRECTION('',(0.,0.,1.));
#810=DIRECTION('center_axis',(0.,1.,0.));
#811=DIRECTION('ref_axis',(-1.,0.,0.));
#812=DIRECTION('',(1.,0.,0.));
#813=DIRECTION('',(-1.,0.,0.));
#814=DIRECTION('',(0.,0.,1.));
#815=DIRECTION('center_axis',(1.,0.,0.));
#816=DIRECTION('ref_axis',(0.,1.,0.));
#817=DIRECTION('',(0.,-1.,0.));
#818=DIRECTION('',(0.,1.,0.));
#819=DIRECTION('',(0.,0.,1.));
#820=DIRECTION('center_axis',(0.,-1.,0.));
#821=DIRECTION('ref_axis',(1.,0.,0.));
#822=DIRECTION('',(-1.,0.,0.));
#823=DIRECTION('',(1.,0.,0.));
#824=DIRECTION('center_axis',(0.,0.,1.));
#825=DIRECTION('ref_axis',(1.,0.,0.));
#826=DIRECTION('center_axis',(0.,0.,-1.));
#827=DIRECTION('ref_axis',(-1.,0.,0.));
#828=DIRECTION('center_axis',(-1.,0.,0.));
#829=DIRECTION('ref_axis',(0.,-1.,0.));
#830=DIRECTION('',(0.,1.,0.));
#831=DIRECTION('',(0.,0.,1.));
#832=DIRECTION('',(0.,-1.,0.));
#833=DIRECTION('',(0.,0.,1.));
#834=DIRECTION('center_axis',(0.,1.,0.));
#835=DIRECTION('ref_axis',(-1.,0.,0.));
#836=DIRECTION('',(1.,0.,0.));
#837=DIRECTION('',(-1.,0.,0.));
#838=DIRECTION('',(0.,0.,1.));
#839=DIRECTION('center_axis',(1.,0.,0.));
#840=DIRECTION('ref_axis',(0.,1.,0.));
#841=DIRECTION('',(0.,-1.,0.));
#842=DIRECTION('',(0.,1.,0.));
#843=DIRECTION('',(0.,0.,1.));
#844=DIRECTION('center_axis',(0.,-1.,0.));
#845=DIRECTION('ref_axis',(1.,0.,0.));
#846=DIRECTION('',(-1.,0.,0.));
#847=DIRECTION('',(1.,0.,0.));
#848=DIRECTION('center_axis',(0.,0.,1.));
#849=DIRECTION('ref_axis',(1.,0.,0.));
#850=DIRECTION('center_axis',(0.,0.,-1.));
#851=DIRECTION('ref_axis',(-1.,0.,0.));
#852=CARTESIAN_POINT('',(0.,0.,0.));
#853=CARTESIAN_POINT('Origin',(10.3259545560311,3.50000005215406,1.6));
#854=CARTESIAN_POINT('',(10.3259545560311,3.50000005215406,1.6));
#855=CARTESIAN_POINT('',(10.3259545560311,0.,1.6));
#856=CARTESIAN_POINT('',(10.3259545560311,2.62500002607703,1.6));
#857=CARTESIAN_POINT('',(10.3259545560311,3.50000005215406,0.6));
#858=CARTESIAN_POINT('',(10.3259545560311,3.5,0.8));
#859=CARTESIAN_POINT('',(10.3259545560311,0.,0.6));
#860=CARTESIAN_POINT('',(10.3259545560311,3.50000005215406,0.6));
#861=CARTESIAN_POINT('',(10.3259545560311,0.,0.8));
#862=CARTESIAN_POINT('Origin',(9.50000014156103,0.,1.6));
#863=CARTESIAN_POINT('',(9.50000014156103,0.,1.6));
#864=CARTESIAN_POINT('',(9.50000014156103,3.50000005215406,1.6));
#865=CARTESIAN_POINT('',(9.50000014156103,0.875,1.6));
#866=CARTESIAN_POINT('',(9.50000014156103,0.,0.6));
#867=CARTESIAN_POINT('',(9.50000014156103,0.,0.8));
#868=CARTESIAN_POINT('',(9.50000014156103,3.50000005215406,0.6));
#869=CARTESIAN_POINT('',(9.50000014156103,0.,0.6));
#870=CARTESIAN_POINT('',(9.50000014156103,3.5,0.8));
#871=CARTESIAN_POINT('Origin',(9.91297734879606,1.75000002607703,0.6));
#872=CARTESIAN_POINT('',(4.95648867439803,0.,0.6));
#873=CARTESIAN_POINT('',(16.456488674398,3.5,0.6));
#874=CARTESIAN_POINT('Origin',(12.8997347450724,3.5,1.6));
#875=CARTESIAN_POINT('',(12.8997347450724,3.5,1.6));
#876=CARTESIAN_POINT('',(12.8997347450724,0.,1.6));
#877=CARTESIAN_POINT('',(12.8997347450724,2.625,1.6));
#878=CARTESIAN_POINT('',(12.8997347450724,3.5,0.6));
#879=CARTESIAN_POINT('',(12.8997347450724,3.5,0.8));
#880=CARTESIAN_POINT('',(12.8997347450724,0.,0.6));
#881=CARTESIAN_POINT('',(12.8997347450724,3.5,0.6));
#882=CARTESIAN_POINT('',(12.8997347450724,0.,0.8));
#883=CARTESIAN_POINT('Origin',(11.8997347450724,0.,1.6));
#884=CARTESIAN_POINT('',(11.8997347450724,0.,1.6));
#885=CARTESIAN_POINT('',(11.8997347450724,3.5,1.6));
#886=CARTESIAN_POINT('',(11.8997347450724,0.875,1.6));
#887=CARTESIAN_POINT('',(11.8997347450724,0.,0.6));
#888=CARTESIAN_POINT('',(11.8997347450724,0.,0.8));
#889=CARTESIAN_POINT('',(11.8997347450724,3.5,0.6));
#890=CARTESIAN_POINT('',(11.8997347450724,0.,0.6));
#891=CARTESIAN_POINT('',(11.8997347450724,3.5,0.8));
#892=CARTESIAN_POINT('Origin',(12.3997347450724,1.75,0.6));
#893=CARTESIAN_POINT('',(6.19986737253621,0.,0.6));
#894=CARTESIAN_POINT('',(17.6998673725362,3.5,0.6));
#895=CARTESIAN_POINT('Origin',(15.5000002160668,3.50000005215406,1.6));
#896=CARTESIAN_POINT('',(15.5000002160668,3.50000005215406,1.6));
#897=CARTESIAN_POINT('',(15.5000002160668,0.,1.6));
#898=CARTESIAN_POINT('',(15.5000002160668,2.62500002607703,1.6));
#899=CARTESIAN_POINT('',(15.5000002160668,3.50000005215406,0.6));
#900=CARTESIAN_POINT('',(15.5000002160668,3.5,0.8));
#901=CARTESIAN_POINT('',(15.5000002160668,0.,0.6));
#902=CARTESIAN_POINT('',(15.5000002160668,3.50000005215406,0.6));
#903=CARTESIAN_POINT('',(15.5000002160668,0.,0.8));
#904=CARTESIAN_POINT('Origin',(14.5000002160668,0.,1.6));
#905=CARTESIAN_POINT('',(14.5000002160668,0.,1.6));
#906=CARTESIAN_POINT('',(14.5000002160668,3.50000005215406,1.6));
#907=CARTESIAN_POINT('',(14.5000002160668,0.875,1.6));
#908=CARTESIAN_POINT('',(14.5000002160668,0.,0.6));
#909=CARTESIAN_POINT('',(14.5000002160668,0.,0.8));
#910=CARTESIAN_POINT('',(14.5000002160668,3.50000005215406,0.6));
#911=CARTESIAN_POINT('',(14.5000002160668,0.,0.6));
#912=CARTESIAN_POINT('',(14.5000002160668,3.5,0.8));
#913=CARTESIAN_POINT('Origin',(15.0000002160668,1.75000002607703,0.6));
#914=CARTESIAN_POINT('',(7.50000010803342,0.,0.6));
#915=CARTESIAN_POINT('',(19.0000001080334,3.5,0.6));
#916=CARTESIAN_POINT('Origin',(11.5,1.75,1.6));
#917=CARTESIAN_POINT('',(23.,0.,1.6));
#918=CARTESIAN_POINT('',(0.,0.,1.6));
#919=CARTESIAN_POINT('',(23.,3.5,1.6));
#920=CARTESIAN_POINT('',(23.,0.,1.6));
#921=CARTESIAN_POINT('',(23.,3.5,1.6));
#922=CARTESIAN_POINT('Origin',(11.5,1.75,1.6));
#923=CARTESIAN_POINT('',(0.,0.,1.6));
#924=CARTESIAN_POINT('',(23.,3.5,1.6));
#925=CARTESIAN_POINT('Origin',(11.5,1.75,1.6));
#926=CARTESIAN_POINT('',(0.,3.5,1.6));
#927=CARTESIAN_POINT('',(23.,3.5,1.6));
#928=CARTESIAN_POINT('',(0.,0.,1.6));
#929=CARTESIAN_POINT('',(0.,3.5,1.6));
#930=CARTESIAN_POINT('',(0.,0.,1.6));
#931=CARTESIAN_POINT('Origin',(11.5,1.75,1.6));
#932=CARTESIAN_POINT('',(0.,0.,1.6));
#933=CARTESIAN_POINT('',(23.,3.5,1.6));
#934=CARTESIAN_POINT('Origin',(0.,0.,0.));
#935=CARTESIAN_POINT('',(0.,0.,0.));
#936=CARTESIAN_POINT('',(0.,0.,0.));
#937=CARTESIAN_POINT('',(23.,0.,0.));
#938=CARTESIAN_POINT('',(0.,0.,0.));
#939=CARTESIAN_POINT('',(23.,0.,0.));
#940=CARTESIAN_POINT('Origin',(23.,3.5,0.));
#941=CARTESIAN_POINT('',(23.,3.5,0.));
#942=CARTESIAN_POINT('',(23.,3.5,0.));
#943=CARTESIAN_POINT('',(0.,3.5,0.));
#944=CARTESIAN_POINT('',(23.,3.5,0.));
#945=CARTESIAN_POINT('',(0.,3.5,0.));
#946=CARTESIAN_POINT('Origin',(23.,0.,0.));
#947=CARTESIAN_POINT('',(23.,0.,0.));
#948=CARTESIAN_POINT('Origin',(0.,3.5,0.));
#949=CARTESIAN_POINT('',(0.,3.5,0.));
#950=CARTESIAN_POINT('Origin',(11.5,1.75,0.));
#951=CARTESIAN_POINT('Origin',(11.8997347450724,3.5,0.6));
#952=CARTESIAN_POINT('',(11.8997347450724,0.,0.6));
#953=CARTESIAN_POINT('',(11.8997347450724,3.5,0.6));
#954=CARTESIAN_POINT('',(11.8997347450724,0.,0.6));
#955=CARTESIAN_POINT('',(11.8997347450724,0.,1.6));
#956=CARTESIAN_POINT('',(11.8997347450724,0.,0.6));
#957=CARTESIAN_POINT('',(11.8997347450724,3.5,1.6));
#958=CARTESIAN_POINT('',(11.8997347450724,0.,1.6));
#959=CARTESIAN_POINT('',(11.8997347450724,3.5,0.6));
#960=CARTESIAN_POINT('Origin',(12.8997347450724,3.5,0.6));
#961=CARTESIAN_POINT('',(12.8997347450724,3.5,0.6));
#962=CARTESIAN_POINT('',(17.6998673725362,3.5,0.6));
#963=CARTESIAN_POINT('',(12.8997347450724,3.5,1.6));
#964=CARTESIAN_POINT('',(17.6998673725362,3.5,1.6));
#965=CARTESIAN_POINT('',(12.8997347450724,3.5,0.6));
#966=CARTESIAN_POINT('Origin',(12.8997347450724,0.,0.6));
#967=CARTESIAN_POINT('',(12.8997347450724,0.,0.6));
#968=CARTESIAN_POINT('',(12.8997347450724,3.5,0.6));
#969=CARTESIAN_POINT('',(12.8997347450724,0.,1.6));
#970=CARTESIAN_POINT('',(12.8997347450724,3.5,1.6));
#971=CARTESIAN_POINT('',(12.8997347450724,0.,0.6));
#972=CARTESIAN_POINT('Origin',(11.8997347450724,0.,0.6));
#973=CARTESIAN_POINT('',(6.19986737253621,0.,0.6));
#974=CARTESIAN_POINT('',(6.19986737253621,0.,1.6));
#975=CARTESIAN_POINT('Origin',(12.3997347450724,1.75,1.6));
#976=CARTESIAN_POINT('Origin',(12.3997347450724,1.75,0.6));
#977=CARTESIAN_POINT('Origin',(9.50000014156103,3.50000005215406,0.6));
#978=CARTESIAN_POINT('',(9.50000014156103,0.,0.6));
#979=CARTESIAN_POINT('',(9.50000014156103,3.50000005215406,0.6));
#980=CARTESIAN_POINT('',(9.50000014156103,0.,0.6));
#981=CARTESIAN_POINT('',(9.50000014156103,0.,1.6));
#982=CARTESIAN_POINT('',(9.50000014156103,0.,0.6));
#983=CARTESIAN_POINT('',(9.50000014156103,3.50000005215406,1.6));
#984=CARTESIAN_POINT('',(9.50000014156103,0.,1.6));
#985=CARTESIAN_POINT('',(9.50000014156103,3.50000005215406,0.6));
#986=CARTESIAN_POINT('Origin',(10.3259545560311,3.5,0.6));
#987=CARTESIAN_POINT('',(10.3259545560311,3.50000005215406,0.6));
#988=CARTESIAN_POINT('',(16.456488674398,3.5,0.6));
#989=CARTESIAN_POINT('',(10.3259545560311,3.50000005215406,1.6));
#990=CARTESIAN_POINT('',(16.456488674398,3.5,1.6));
#991=CARTESIAN_POINT('',(10.3259545560311,3.50000005215406,0.6));
#992=CARTESIAN_POINT('Origin',(10.3259545560311,0.,0.6));
#993=CARTESIAN_POINT('',(10.3259545560311,0.,0.6));
#994=CARTESIAN_POINT('',(10.3259545560311,3.50000005215406,0.6));
#995=CARTESIAN_POINT('',(10.3259545560311,0.,1.6));
#996=CARTESIAN_POINT('',(10.3259545560311,3.50000005215406,1.6));
#997=CARTESIAN_POINT('',(10.3259545560311,0.,0.6));
#998=CARTESIAN_POINT('Origin',(9.50000014156103,0.,0.6));
#999=CARTESIAN_POINT('',(4.95648867439803,0.,0.6));
#1000=CARTESIAN_POINT('',(4.95648867439803,0.,1.6));
#1001=CARTESIAN_POINT('Origin',(9.91297734879606,1.75000002607703,1.6));
#1002=CARTESIAN_POINT('Origin',(9.91297734879606,1.75000002607703,0.6));
#1003=CARTESIAN_POINT('Origin',(14.5000002160668,3.50000005215406,0.6));
#1004=CARTESIAN_POINT('',(14.5000002160668,0.,0.6));
#1005=CARTESIAN_POINT('',(14.5000002160668,3.50000005215406,0.6));
#1006=CARTESIAN_POINT('',(14.5000002160668,0.,0.6));
#1007=CARTESIAN_POINT('',(14.5000002160668,0.,1.6));
#1008=CARTESIAN_POINT('',(14.5000002160668,0.,0.6));
#1009=CARTESIAN_POINT('',(14.5000002160668,3.50000005215406,1.6));
#1010=CARTESIAN_POINT('',(14.5000002160668,0.,1.6));
#1011=CARTESIAN_POINT('',(14.5000002160668,3.50000005215406,0.6));
#1012=CARTESIAN_POINT('Origin',(15.5000002160668,3.5,0.6));
#1013=CARTESIAN_POINT('',(15.5000002160668,3.50000005215406,0.6));
#1014=CARTESIAN_POINT('',(19.0000001080334,3.5,0.6));
#1015=CARTESIAN_POINT('',(15.5000002160668,3.50000005215406,1.6));
#1016=CARTESIAN_POINT('',(19.0000001080334,3.5,1.6));
#1017=CARTESIAN_POINT('',(15.5000002160668,3.50000005215406,0.6));
#1018=CARTESIAN_POINT('Origin',(15.5000002160668,0.,0.6));
#1019=CARTESIAN_POINT('',(15.5000002160668,0.,0.6));
#1020=CARTESIAN_POINT('',(15.5000002160668,3.50000005215406,0.6));
#1021=CARTESIAN_POINT('',(15.5000002160668,0.,1.6));
#1022=CARTESIAN_POINT('',(15.5000002160668,3.50000005215406,1.6));
#1023=CARTESIAN_POINT('',(15.5000002160668,0.,0.6));
#1024=CARTESIAN_POINT('Origin',(14.5000002160668,0.,0.6));
#1025=CARTESIAN_POINT('',(7.50000010803342,0.,0.6));
#1026=CARTESIAN_POINT('',(7.50000010803342,0.,1.6));
#1027=CARTESIAN_POINT('Origin',(15.0000002160668,1.75000002607703,1.6));
#1028=CARTESIAN_POINT('Origin',(15.0000002160668,1.75000002607703,0.6));
#1029=UNCERTAINTY_MEASURE_WITH_UNIT(LENGTH_MEASURE(0.01),#1033,
'DISTANCE_ACCURACY_VALUE',
'Maximum model space distance between geometric entities at asserted c
onnectivities');
#1030=UNCERTAINTY_MEASURE_WITH_UNIT(LENGTH_MEASURE(0.01),#1033,
'DISTANCE_ACCURACY_VALUE',
'Maximum model space distance between geometric entities at asserted c
onnectivities');
#1031=(
GEOMETRIC_REPRESENTATION_CONTEXT(3)
GLOBAL_UNCERTAINTY_ASSIGNED_CONTEXT((#1029))
GLOBAL_UNIT_ASSIGNED_CONTEXT((#1033,#1035,#1036))
REPRESENTATION_CONTEXT('','3D')
);
#1032=(
GEOMETRIC_REPRESENTATION_CONTEXT(3)
GLOBAL_UNCERTAINTY_ASSIGNED_CONTEXT((#1030))
GLOBAL_UNIT_ASSIGNED_CONTEXT((#1033,#1035,#1036))
REPRESENTATION_CONTEXT('','3D')
);
#1033=(
LENGTH_UNIT()
NAMED_UNIT(*)
SI_UNIT(.MILLI.,.METRE.)
);
#1034=(
LENGTH_UNIT()
NAMED_UNIT(*)
SI_UNIT($,.METRE.)
);
#1035=(
NAMED_UNIT(*)
PLANE_ANGLE_UNIT()
SI_UNIT($,.RADIAN.)
);
#1036=(
NAMED_UNIT(*)
SI_UNIT($,.STERADIAN.)
SOLID_ANGLE_UNIT()
);
#1037=SHAPE_DEFINITION_REPRESENTATION(#1038,#1039);
#1038=PRODUCT_DEFINITION_SHAPE('',$,#1041);
#1039=SHAPE_REPRESENTATION('',(#657),#1031);
#1040=PRODUCT_DEFINITION_CONTEXT('part definition',#1045,'design');
#1041=PRODUCT_DEFINITION('CA-L01','CA-L01 v2',#1042,#1040);
#1042=PRODUCT_DEFINITION_FORMATION('',$,#1047);
#1043=PRODUCT_RELATED_PRODUCT_CATEGORY('CA-L01 v2','CA-L01 v2',(#1047));
#1044=APPLICATION_PROTOCOL_DEFINITION('international standard',
'automotive_design',2009,#1045);
#1045=APPLICATION_CONTEXT(
'Core Data for Automotive Mechanical Design Process');
#1046=PRODUCT_CONTEXT('part definition',#1045,'mechanical');
#1047=PRODUCT('CA-L01','CA-L01 v2',$,(#1046));
#1048=PRESENTATION_STYLE_ASSIGNMENT((#1051));
#1049=PRESENTATION_STYLE_ASSIGNMENT((#1052));
#1050=PRESENTATION_STYLE_ASSIGNMENT((#1053));
#1051=SURFACE_STYLE_USAGE(.BOTH.,#1054);
#1052=SURFACE_STYLE_USAGE(.BOTH.,#1055);
#1053=SURFACE_STYLE_USAGE(.BOTH.,#1056);
#1054=SURFACE_SIDE_STYLE('',(#1057));
#1055=SURFACE_SIDE_STYLE('',(#1058));
#1056=SURFACE_SIDE_STYLE('',(#1059));
#1057=SURFACE_STYLE_FILL_AREA(#1060);
#1058=SURFACE_STYLE_FILL_AREA(#1061);
#1059=SURFACE_STYLE_FILL_AREA(#1062);
#1060=FILL_AREA_STYLE('\X2\94A2\X0\ - \X2\7F0E5149\X0\',(#1063));
#1061=FILL_AREA_STYLE('\X2\6D826599\X0\ - \X2\74F791C9670951496CFD\X0\(
\X2\7EA28272\X0\)',(#1064));
#1062=FILL_AREA_STYLE('\X2\6D826599\X0\ - \X2\74F791C9670951496CFD\X0\(
\X2\767D8272\X0\)',(#1065));
#1063=FILL_AREA_STYLE_COLOUR('\X2\94A2\X0\ - \X2\7F0E5149\X0\',#1066);
#1064=FILL_AREA_STYLE_COLOUR('\X2\6D826599\X0\ - \X2\74F791C9670951496CFD\X0\(
\X2\7EA28272\X0\)',#1067);
#1065=FILL_AREA_STYLE_COLOUR('\X2\6D826599\X0\ - \X2\74F791C9670951496CFD\X0\(
\X2\767D8272\X0\)',#1068);
#1066=COLOUR_RGB('\X2\94A2\X0\ - \X2\7F0E5149\X0\',0.627450980392157,0.627450980392157,
0.627450980392157);
#1067=COLOUR_RGB('\X2\6D826599\X0\ - \X2\74F791C9670951496CFD\X0\(\X2\7EA28272\X0\)',
0.768627450980392,0.207843137254902,0.152941176470588);
#1068=COLOUR_RGB('\X2\6D826599\X0\ - \X2\74F791C9670951496CFD\X0\(\X2\767D8272\X0\)',
0.964705882352941,0.964705882352941,0.952941176470588);
ENDSEC;
END-ISO-10303-21;
